<svg width="17" height="17" viewBox="0 0 17 17" fill="none" xmlns="http://www.w3.org/2000/svg">
<path d="M8.21914 4.53545C5.94771 4.53545 4.11557 6.33896 4.11557 8.5749C4.11557 10.8108 5.94771 12.6143 8.21914 12.6143C10.4906 12.6143 12.3227 10.8108 12.3227 8.5749C12.3227 6.33896 10.4906 4.53545 8.21914 4.53545ZM8.21914 11.2011C6.75128 11.2011 5.55128 10.0233 5.55128 8.5749C5.55128 7.12646 6.74771 5.94873 8.21914 5.94873C9.69056 5.94873 10.887 7.12646 10.887 8.5749C10.887 10.0233 9.68699 11.2011 8.21914 11.2011ZM13.4477 4.37021C13.4477 4.89404 13.0191 5.3124 12.4906 5.3124C11.9584 5.3124 11.5334 4.89052 11.5334 4.37021C11.5334 3.8499 11.962 3.42803 12.4906 3.42803C13.0191 3.42803 13.4477 3.8499 13.4477 4.37021ZM16.1656 5.32646C16.1048 4.06435 15.812 2.94639 14.8727 2.02529C13.937 1.1042 12.8013 0.815918 11.5191 0.752637C10.1977 0.678809 6.23699 0.678809 4.91557 0.752637C3.637 0.812402 2.50128 1.10068 1.562 2.02178C0.622712 2.94287 0.333426 4.06084 0.269141 5.32295C0.194141 6.62373 0.194141 10.5226 0.269141 11.8233C0.329855 13.0854 0.622712 14.2034 1.562 15.1245C2.50128 16.0456 3.63342 16.3339 4.91557 16.3972C6.23699 16.471 10.1977 16.471 11.5191 16.3972C12.8013 16.3374 13.937 16.0491 14.8727 15.1245C15.8084 14.2034 16.1013 13.0854 16.1656 11.8233C16.2406 10.5226 16.2406 6.62724 16.1656 5.32646ZM14.4584 13.219C14.1798 13.9081 13.6406 14.439 12.937 14.7167C11.8834 15.128 9.38342 15.0331 8.21914 15.0331C7.05485 15.0331 4.55128 15.1245 3.50128 14.7167C2.80128 14.4425 2.262 13.9116 1.97985 13.219C1.562 12.1819 1.65843 9.72099 1.65843 8.5749C1.65843 7.4288 1.56557 4.96435 1.97985 3.93076C2.25842 3.2417 2.79771 2.71084 3.50128 2.4331C4.55485 2.02178 7.05485 2.1167 8.21914 2.1167C9.38342 2.1167 11.887 2.02529 12.937 2.4331C13.637 2.70732 14.1763 3.23818 14.4584 3.93076C14.8763 4.96787 14.7798 7.4288 14.7798 8.5749C14.7798 9.72099 14.8763 12.1854 14.4584 13.219Z" fill="white"/>
</svg>
