<svg width="17" height="16" viewBox="0 0 17 16" fill="none" xmlns="http://www.w3.org/2000/svg">
<path d="M3.84826 15.5784V5.4579H0.417962V15.5784H3.84826ZM2.13356 4.07529C3.32976 4.07529 4.07434 3.29815 4.07434 2.32699C4.05206 1.33393 3.32981 0.578369 2.15626 0.578369C0.982888 0.578369 0.215576 1.33395 0.215576 2.32699C0.215576 3.2982 0.959974 4.07529 2.11116 4.07529H2.13345H2.13356ZM5.74693 15.5784H9.17723V9.92661C9.17723 9.62413 9.19952 9.32197 9.2901 9.10575C9.53808 8.50141 10.1025 7.87549 11.0501 7.87549C12.2914 7.87549 12.788 8.80357 12.788 10.1641V15.5783H16.2181V9.77532C16.2181 6.6667 14.5257 5.2203 12.2688 5.2203C10.4183 5.2203 9.60579 6.23463 9.15441 6.92548H9.1773V5.45769H5.747C5.79202 6.40734 5.747 15.5782 5.747 15.5782L5.74693 15.5784Z" fill="white"/>
</svg>
