<svg width="21" height="17" viewBox="0 0 21 17" fill="none" xmlns="http://www.w3.org/2000/svg">
<path d="M2.21558 16.5784C1.66558 16.5784 1.19058 16.3867 0.790576 16.0034C0.407243 15.6034 0.215576 15.1284 0.215576 14.5784V2.57837C0.215576 2.02837 0.407243 1.5617 0.790576 1.17837C1.19058 0.778369 1.66558 0.578369 2.21558 0.578369H18.2156C18.7656 0.578369 19.2322 0.778369 19.6156 1.17837C20.0156 1.5617 20.2156 2.02837 20.2156 2.57837V14.5784C20.2156 15.1284 20.0156 15.6034 19.6156 16.0034C19.2322 16.3867 18.7656 16.5784 18.2156 16.5784H2.21558ZM10.2156 9.57837L18.2156 4.57837V2.57837L10.2156 7.57837L2.21558 2.57837V4.57837L10.2156 9.57837Z" fill="#FEF7FF"/>
</svg>
