<svg width="21" height="21" viewBox="0 0 21 21" fill="none" xmlns="http://www.w3.org/2000/svg">
<path d="M7.57983 15.8292L10.9132 13.2875L14.2465 15.8292L12.9965 11.7042L16.3298 9.32918H12.2465L10.9132 4.99585L9.57983 9.32918H5.4965L8.82983 11.7042L7.57983 15.8292ZM10.9132 19.1625C9.76039 19.1625 8.67706 18.9438 7.66317 18.5063C6.64928 18.0688 5.76733 17.475 5.01733 16.725C4.26733 15.975 3.67358 15.0931 3.23608 14.0792C2.79858 13.0653 2.57983 11.982 2.57983 10.8292C2.57983 9.67641 2.79858 8.59307 3.23608 7.57918C3.67358 6.56529 4.26733 5.68335 5.01733 4.93335C5.76733 4.18335 6.64928 3.5896 7.66317 3.1521C8.67706 2.7146 9.76039 2.49585 10.9132 2.49585C12.0659 2.49585 13.1493 2.7146 14.1632 3.1521C15.1771 3.5896 16.059 4.18335 16.809 4.93335C17.559 5.68335 18.1528 6.56529 18.5903 7.57918C19.0278 8.59307 19.2465 9.67641 19.2465 10.8292C19.2465 11.982 19.0278 13.0653 18.5903 14.0792C18.1528 15.0931 17.559 15.975 16.809 16.725C16.059 17.475 15.1771 18.0688 14.1632 18.5063C13.1493 18.9438 12.0659 19.1625 10.9132 19.1625Z" fill="white"/>
</svg>
