<?xml version="1.0" encoding="UTF-8"?>
<svg version="1.1" xmlns="http://www.w3.org/2000/svg" width="3250" height="2751">
<path d="M0 0 C29.59158924 -0.16225544 59.1640088 -0.0062648 88.75 0.55078125 C89.8846014 0.57211498 89.8846014 0.57211498 91.04212403 0.5938797 C103.02834984 0.82034521 115.01421438 1.06394635 127 1.3125 C128.24057199 1.33820839 128.24057199 1.33820839 129.50620604 1.36443615 C135.45491171 1.48778839 141.40360489 1.61173607 147.35229492 1.73583984 C148.20228872 1.75355895 149.05228252 1.77127805 149.92803371 1.78953409 C152.51121191 1.8433849 155.09438939 1.89727028 157.67756653 1.95117188 C158.53202053 1.96899554 159.38647454 1.98681921 160.26682109 2.00518298 C164.58703142 2.09540494 168.9072294 2.18616787 173.22740746 2.27792358 C193.96157804 2.71805669 214.69509977 3.10335405 235.43199503 3.38894302 C236.19984713 3.39952355 236.96769923 3.41010409 237.75881958 3.42100525 C238.52214895 3.43151356 239.28547831 3.44202187 240.07193887 3.45284861 C249.65234056 3.58637381 259.23223907 3.75056984 268.81207466 3.91948414 C276.39990863 4.05187835 283.98718499 4.15753876 291.57584125 4.22893256 C297.30634265 4.28548198 303.0352989 4.38782136 308.76479149 4.50769615 C311.09246862 4.54891534 313.42047567 4.5748152 315.74849892 4.58417702 C318.90534675 4.59881205 322.05647074 4.66771118 325.2121582 4.75048828 C326.58237373 4.73697059 326.58237373 4.73697059 327.98027039 4.72317982 C331.85381413 4.87587192 334.09974875 5.05459271 336.84360313 7.93607712 C338.39574301 10.23329969 339.71679372 12.54415404 341 15 C341.863064 16.42806088 342.73300163 17.85201754 343.61328125 19.26953125 C344.51502911 20.78265914 345.4146606 22.29704969 346.3125 23.8125 C350.83483275 31.39983352 355.40129846 38.95868901 359.99740601 46.5015564 C366.98132279 57.96625781 373.86842024 69.48526496 380.70608521 81.03771973 C386.24576566 90.39464603 391.83929879 99.71581338 397.5 109 C403.98326787 119.63328845 410.36477342 130.3236673 416.70800781 141.04101562 C422.24705071 150.39684031 427.83996139 159.71690012 433.5 169 C439.98326787 179.63328845 446.36477342 190.3236673 452.70800781 201.04101562 C458.24705071 210.39684031 463.83996139 219.71690012 469.5 229 C475.98326787 239.63328845 482.36477342 250.3236673 488.70800781 261.04101562 C494.24705071 270.39684031 499.83996139 279.71690012 505.5 289 C511.98326787 299.63328845 518.36477342 310.3236673 524.70800781 321.04101562 C530.24705071 330.39684031 535.83996139 339.71690012 541.5 349 C547.98326787 359.63328845 554.36477342 370.3236673 560.70800781 381.04101562 C566.24705071 390.39684031 571.83996139 399.71690012 577.5 409 C583.98326787 419.63328845 590.36477342 430.3236673 596.70800781 441.04101562 C602.24705071 450.39684031 607.83996139 459.71690012 613.5 469 C619.98326787 479.63328845 626.36477342 490.3236673 632.70800781 501.04101562 C638.24705071 510.39684031 643.83996139 519.71690012 649.5 529 C655.57165941 538.95820428 661.5594014 548.96307483 667.5 559 C673.29340693 568.78786758 679.12352962 578.55114165 685.03451538 588.26852417 C686.1073309 590.03343224 687.17762482 591.79984639 688.24731445 593.56665039 C691.16282579 598.37417606 694.0892135 603.16825769 697.12890625 607.8984375 C697.57153809 608.59831787 698.01416992 609.29819824 698.47021484 610.01928711 C699.57471899 611.7597783 700.69841084 613.48805611 701.82421875 615.21484375 C703 618 703 618 702.26000977 620.3293457 C700.9414851 623.12402528 699.52374034 625.818295 698.015625 628.515625 C697.1181958 630.1258252 697.1181958 630.1258252 696.20263672 631.76855469 C695.23608154 633.49187012 695.23608154 633.49187012 694.25 635.25 C693.5741347 636.45982309 692.89852005 637.66978623 692.22314453 638.87988281 C690.48750607 641.98799752 688.74828201 645.09409036 687.00817871 648.19970703 C685.45365872 650.97559526 683.90277698 653.7535136 682.3515625 656.53125 C676.23074817 667.48446603 670.07532104 678.41772112 663.89404297 689.33691406 C659.90920261 696.38005607 655.94997188 703.43725188 652 710.5 C644.83966109 723.30136845 637.62203755 736.0699008 630.39550781 748.83398438 C623.64416074 760.76068017 616.92035813 772.70215253 610.23071289 784.66357422 C605.80818154 792.56738596 601.35644508 800.45430869 596.89453125 808.3359375 C592.90963231 815.37946347 588.95010006 822.43690717 585 829.5 C579.99020403 838.45791332 574.95379517 847.40024115 569.89672852 856.33154297 C565.88767249 863.4167797 561.90876517 870.51852549 557.9375 877.625 C553.66298819 885.27214861 549.3581974 892.90023427 545 900.5 C538.8513503 911.2240317 532.81493734 922.00973795 526.78662109 932.80175781 C518.85527697 946.99970917 510.90758223 961.18798078 502.89208984 975.33862305 C500.10180349 980.26824143 497.32394899 985.20432419 494.56640625 990.15234375 C488.78934366 1000.51681239 482.95547508 1010.83570099 476.9375 1021.0625 C471.67568674 1030.01073332 466.65908921 1039.06674787 461.75146484 1048.21337891 C457.81032994 1055.54597357 453.73621193 1062.79031299 449.58496094 1070.00561523 C445.7188907 1076.72830988 441.90955206 1083.48109126 438.125 1090.25 C437.54057129 1091.29518799 436.95614258 1092.34037598 436.35400391 1093.41723633 C435.1646078 1095.54526011 433.97548147 1097.67343469 432.78662109 1099.80175781 C422.70867411 1117.84235708 412.57655402 1135.85139394 402.39550781 1153.83398438 C395.64416074 1165.76068017 388.92035813 1177.70215253 382.23071289 1189.66357422 C377.80818154 1197.56738596 373.35644508 1205.45430869 368.89453125 1213.3359375 C364.90963231 1220.37946347 360.95010006 1227.43690717 357 1234.5 C351.99020403 1243.45791332 346.95379517 1252.40024115 341.89672852 1261.33154297 C337.88767249 1268.4167797 333.90876517 1275.51852549 329.9375 1282.625 C325.66298819 1290.27214861 321.3581974 1297.90023427 317 1305.5 C310.8513503 1316.2240317 304.81493734 1327.00973795 298.78662109 1337.80175781 C290.85527697 1351.99970917 282.90758223 1366.18798078 274.89208984 1380.33862305 C272.10180349 1385.26824143 269.32394899 1390.20432419 266.56640625 1395.15234375 C260.78934366 1405.51681239 254.95547508 1415.83570099 248.9375 1426.0625 C243.67568674 1435.01073332 238.65908921 1444.06674787 233.75146484 1453.21337891 C229.81032994 1460.54597357 225.73621193 1467.79031299 221.58496094 1475.00561523 C217.7188907 1481.72830988 213.90955206 1488.48109126 210.125 1495.25 C209.54057129 1496.29518799 208.95614258 1497.34037598 208.35400391 1498.41723633 C207.1646078 1500.54526011 205.97548147 1502.67343469 204.78662109 1504.80175781 C194.70867411 1522.84235708 184.57655402 1540.85139394 174.39550781 1558.83398438 C167.64416074 1570.76068017 160.92035813 1582.70215253 154.23071289 1594.66357422 C149.80818154 1602.56738596 145.35644508 1610.45430869 140.89453125 1618.3359375 C136.90963231 1625.37946347 132.95010006 1632.43690717 129 1639.5 C123.99020403 1648.45791332 118.95379517 1657.40024115 113.89672852 1666.33154297 C109.88767249 1673.4167797 105.90876517 1680.51852549 101.9375 1687.625 C97.66298819 1695.27214861 93.3581974 1702.90023427 89 1710.5 C82.8513503 1721.2240317 76.81493734 1732.00973795 70.78662109 1742.80175781 C62.85527697 1756.99970917 54.90758223 1771.18798078 46.89208984 1785.33862305 C44.10180349 1790.26824143 41.32394899 1795.20432419 38.56640625 1800.15234375 C32.78934366 1810.51681239 26.95547508 1820.83570099 20.9375 1831.0625 C15.67568674 1840.01073332 10.65908921 1849.06674787 5.75146484 1858.21337891 C1.81032994 1865.54597357 -2.26378807 1872.79031299 -6.41503906 1880.00561523 C-10.2811093 1886.72830988 -14.09044794 1893.48109126 -17.875 1900.25 C-18.45942871 1901.29518799 -19.04385742 1902.34037598 -19.64599609 1903.41723633 C-20.8353922 1905.54526011 -22.02451853 1907.67343469 -23.21337891 1909.80175781 C-33.29132589 1927.84235708 -43.42344598 1945.85139394 -53.60449219 1963.83398438 C-60.35583926 1975.76068017 -67.07964187 1987.70215253 -73.76928711 1999.66357422 C-78.19181846 2007.56738596 -82.64355492 2015.45430869 -87.10546875 2023.3359375 C-91.09036769 2030.37946347 -95.04989994 2037.43690717 -99 2044.5 C-104.01107988 2053.46020905 -109.04772336 2062.40543417 -114.10766602 2071.33813477 C-116.89799962 2076.26793504 -119.67596258 2081.20416551 -122.43359375 2086.15234375 C-128.21065634 2096.51681239 -134.04452492 2106.83570099 -140.0625 2117.0625 C-145.32431326 2126.01073332 -150.34091079 2135.06674787 -155.24853516 2144.21337891 C-159.18967006 2151.54597357 -163.26378807 2158.79031299 -167.41503906 2166.00561523 C-171.2811093 2172.72830988 -175.09044794 2179.48109126 -178.875 2186.25 C-179.45942871 2187.29518799 -180.04385742 2188.34037598 -180.64599609 2189.41723633 C-181.8353922 2191.54526011 -183.02451853 2193.67343469 -184.21337891 2195.80175781 C-194.29132589 2213.84235708 -204.42344598 2231.85139394 -214.60449219 2249.83398438 C-221.35583926 2261.76068017 -228.07964187 2273.70215253 -234.76928711 2285.66357422 C-239.192304 2293.5682537 -243.64325546 2301.45677218 -248.10766602 2309.33813477 C-250.89799962 2314.26793504 -253.67596258 2319.20416551 -256.43359375 2324.15234375 C-264.45163718 2338.53805188 -272.64742738 2352.80599797 -281 2367 C-284.75955656 2365.74681448 -285.00249581 2364.72347315 -286.86328125 2361.3125 C-287.41322754 2360.31637695 -287.96317383 2359.32025391 -288.52978516 2358.29394531 C-289.11808105 2357.20694336 -289.70637695 2356.11994141 -290.3125 2355 C-291.57660649 2352.70300588 -292.8409356 2350.40613427 -294.10546875 2348.109375 C-294.75852484 2346.91613822 -295.4113564 2345.72277854 -296.06396484 2344.52929688 C-299.04674022 2339.08192198 -302.08716567 2333.66679991 -305.125 2328.25 C-305.70677002 2327.21037109 -306.28854004 2326.17074219 -306.88793945 2325.09960938 C-311.03751168 2317.69111047 -315.23941128 2310.31387731 -319.46362305 2302.94775391 C-323.93381233 2295.14172371 -328.32796516 2287.2940154 -332.71655273 2279.44189453 C-336.64778601 2272.40967331 -340.59588444 2265.38732401 -344.5625 2258.375 C-345.09552734 2257.43269531 -345.62855469 2256.49039063 -346.17773438 2255.51953125 C-347.78476672 2252.67946681 -349.39228445 2249.83967774 -351 2247 C-357.71465321 2235.14003432 -364.41331178 2223.27181844 -371.0625 2211.375 C-375.33706419 2203.72788159 -379.64172213 2196.09971977 -384 2188.5 C-388.96382317 2179.8443644 -393.85131199 2171.14765223 -398.71875 2162.4375 C-402.62616348 2155.44709434 -406.55409069 2148.46874267 -410.5 2141.5 C-415.04564696 2133.47208009 -419.56209184 2125.42836197 -424.0625 2117.375 C-428.33701123 2109.72785243 -432.64172248 2102.09971915 -437 2094.5 C-441.96301028 2085.84578188 -446.84937404 2077.15031718 -451.71655273 2068.44189453 C-455.64778601 2061.40967331 -459.59588444 2054.38732401 -463.5625 2047.375 C-464.09552734 2046.43269531 -464.62855469 2045.49039063 -465.17773438 2044.51953125 C-466.78476672 2041.67946681 -468.39228445 2038.83967774 -470 2036 C-476.71465321 2024.14003432 -483.41331178 2012.27181844 -490.0625 2000.375 C-494.33706419 1992.72788159 -498.64172213 1985.09971977 -503 1977.5 C-507.96301028 1968.84578188 -512.84937404 1960.15031718 -517.71655273 1951.44189453 C-521.64778601 1944.40967331 -525.59588444 1937.38732401 -529.5625 1930.375 C-530.09552734 1929.43269531 -530.62855469 1928.49039062 -531.17773438 1927.51953125 C-532.78476672 1924.67946681 -534.39228445 1921.83967774 -536 1919 C-542.71465321 1907.14003432 -549.41331178 1895.27181844 -556.0625 1883.375 C-560.33706419 1875.72788159 -564.64172213 1868.09971977 -569 1860.5 C-573.96382317 1851.8443644 -578.85131199 1843.14765223 -583.71875 1834.4375 C-587.62616348 1827.44709434 -591.55409069 1820.46874267 -595.5 1813.5 C-600.04564696 1805.47208009 -604.56209184 1797.42836197 -609.0625 1789.375 C-613.33701123 1781.72785243 -617.64172248 1774.09971915 -622 1766.5 C-626.96301028 1757.84578188 -631.84937404 1749.15031718 -636.71655273 1740.44189453 C-640.64778601 1733.40967331 -644.59588444 1726.38732401 -648.5625 1719.375 C-649.09552734 1718.43269531 -649.62855469 1717.49039062 -650.17773438 1716.51953125 C-651.78476672 1713.67946681 -653.39228445 1710.83967774 -655 1708 C-661.71465321 1696.14003432 -668.41331178 1684.27181844 -675.0625 1672.375 C-679.33706419 1664.72788159 -683.64172213 1657.09971977 -688 1649.5 C-692.96301028 1640.84578188 -697.84937404 1632.15031718 -702.71655273 1623.44189453 C-706.64778601 1616.40967331 -710.59588444 1609.38732401 -714.5625 1602.375 C-715.09552734 1601.43269531 -715.62855469 1600.49039062 -716.17773438 1599.51953125 C-717.78476672 1596.67946681 -719.39228445 1593.83967774 -721 1591 C-723.14648595 1587.20870223 -725.29236927 1583.41706473 -727.4375 1579.625 C-728.23921631 1578.20828003 -728.23921631 1578.20828003 -729.05712891 1576.76293945 C-731.86476317 1571.79639505 -734.66008636 1566.82335767 -737.4375 1561.83984375 C-743.21363669 1551.47820141 -749.04600435 1541.16178491 -755.0625 1530.9375 C-760.32431326 1521.98926668 -765.34091079 1512.93325213 -770.24853516 1503.78662109 C-774.18811399 1496.45692154 -778.25962146 1489.21483688 -782.41064453 1482.00317383 C-786.92839911 1474.14997066 -791.35129493 1466.24548983 -795.7668457 1458.33447266 C-800.15148267 1450.48904997 -804.59349021 1442.67814192 -809.09375 1434.8984375 C-809.9933897 1433.33550412 -810.87945173 1431.76464967 -811.74951172 1430.18505859 C-812.95981902 1427.9892452 -812.95981902 1427.9892452 -814.41064453 1426.00634766 C-815.75800243 1423.93393073 -816.56471754 1422.43831955 -817 1420 C-815.88261354 1416.09154008 -813.80349809 1412.90604357 -811.625 1409.5 C-811.02083252 1408.49735107 -810.41666504 1407.49470215 -809.79418945 1406.46166992 C-808.51947296 1404.34767048 -807.23214436 1402.24123103 -805.93310547 1400.14208984 C-802.92500491 1395.25269174 -800.06473174 1390.2795891 -797.1875 1385.3125 C-796.01350203 1383.305708 -794.83901354 1381.29920289 -793.6640625 1379.29296875 C-789.75364415 1372.59497773 -785.90387302 1365.86272079 -782.0625 1359.125 C-776.28790906 1348.99684712 -770.48108945 1338.88796661 -764.64697266 1328.79394531 C-760.3926282 1321.42778163 -756.16650945 1314.04587811 -751.953125 1306.65625 C-746.12131169 1296.42814665 -740.2349777 1286.23409984 -734.28662109 1276.07324219 C-729.48588404 1267.86084825 -724.75859742 1259.60738625 -720.046875 1251.34375 C-714.61066155 1241.80946795 -709.13904894 1232.29617796 -703.64697266 1222.79394531 C-699.3926282 1215.42778163 -695.16650945 1208.04587811 -690.953125 1200.65625 C-685.12131169 1190.42814665 -679.2349777 1180.23409984 -673.28662109 1170.07324219 C-668.48588404 1161.86084825 -663.75859742 1153.60738625 -659.046875 1145.34375 C-653.61066155 1135.80946795 -648.13904894 1126.29617796 -642.64697266 1116.79394531 C-638.3926282 1109.42778163 -634.16650945 1102.04587811 -629.953125 1094.65625 C-624.12131169 1084.42814665 -618.2349777 1074.23409984 -612.28662109 1064.07324219 C-607.48588404 1055.86084825 -602.75859742 1047.60738625 -598.046875 1039.34375 C-592.61066155 1029.80946795 -587.13904894 1020.29617796 -581.64697266 1010.79394531 C-577.3926282 1003.42778163 -573.16650945 996.04587811 -568.953125 988.65625 C-563.12131169 978.42814665 -557.2349777 968.23409984 -551.28662109 958.07324219 C-546.48588404 949.86084825 -541.75859742 941.60738625 -537.046875 933.34375 C-531.61066155 923.80946795 -526.13904894 914.29617796 -520.64697266 904.79394531 C-516.3926282 897.42778163 -512.16650945 890.04587811 -507.953125 882.65625 C-502.12131169 872.42814665 -496.2349777 862.23409984 -490.28662109 852.07324219 C-485.48588404 843.86084825 -480.75859742 835.60738625 -476.046875 827.34375 C-471.22207465 818.88179246 -466.37431361 810.43357068 -461.5 802 C-456.307595 793.01459064 -451.14333816 784.01354666 -446 775 C-438.99058673 762.71747153 -431.93427506 750.46242078 -424.85888672 738.21777344 C-421.73675397 732.81329359 -418.61854119 727.40655282 -415.5 722 C-411.76363085 715.52233115 -408.02651653 709.04510017 -404.28515625 702.5703125 C-397.82980858 691.39550898 -391.39670656 680.20845697 -385 669 C-376.76402941 654.56874211 -368.45951132 640.1774377 -360.14550781 625.79101562 C-358.28397328 622.56931725 -356.42301161 619.34728921 -354.5625 616.125 C-353.94697266 615.05894531 -353.33144531 613.99289062 -352.69726562 612.89453125 C-347.74546958 604.31004403 -342.83175132 595.70419707 -337.92263794 587.09527588 C-332.76583392 578.05528292 -327.54456231 569.05474679 -322.28662109 560.07324219 C-317.48588404 551.86084825 -312.75859742 543.60738625 -308.046875 535.34375 C-302.61066155 525.80946795 -297.13904894 516.29617796 -291.64697266 506.79394531 C-287.3926282 499.42778163 -283.16650945 492.04587811 -278.953125 484.65625 C-273.12131169 474.42814665 -267.2349777 464.23409984 -261.28662109 454.07324219 C-256.48588404 445.86084825 -251.75859742 437.60738625 -247.046875 429.34375 C-241.61066155 419.80946795 -236.13904894 410.29617796 -230.64697266 400.79394531 C-226.3926282 393.42778163 -222.16650945 386.04587811 -217.953125 378.65625 C-212.12131169 368.42814665 -206.2349777 358.23409984 -200.28662109 348.07324219 C-195.48588404 339.86084825 -190.75859742 331.60738625 -186.046875 323.34375 C-180.61066155 313.80946795 -175.13904894 304.29617796 -169.64697266 294.79394531 C-165.3926282 287.42778163 -161.16650945 280.04587811 -156.953125 272.65625 C-151.12131169 262.42814665 -145.2349777 252.23409984 -139.28662109 242.07324219 C-134.48588404 233.86084825 -129.75859742 225.60738625 -125.046875 217.34375 C-119.61066155 207.80946795 -114.13904894 198.29617796 -108.64697266 188.79394531 C-104.3926282 181.42778163 -100.16650945 174.04587811 -95.953125 166.65625 C-90.12131169 156.42814665 -84.2349777 146.23409984 -78.28662109 136.07324219 C-73.48588404 127.86084825 -68.75859742 119.60738625 -64.046875 111.34375 C-58.61066155 101.80946795 -53.13904894 92.29617796 -47.64697266 82.79394531 C-43.05078741 74.83590309 -38.48942237 66.8583905 -33.9375 58.875 C-28.42149577 49.20134836 -22.8575957 39.55713372 -17.21850586 29.95458984 C-13.35527349 23.36483625 -9.55757454 16.73899976 -5.77050781 10.10522461 C-5.21473053 9.1321209 -4.65895325 8.15901718 -4.08633423 7.15642548 C-2.72400766 4.77107308 -1.36190225 2.38559468 0 0 Z " fill="#004C71" transform="translate(817,15)"/>
<path d="M0 0 C-0.69292959 3.82094305 -1.66293358 6.51819673 -3.66796875 9.859375 C-4.22419922 10.79716797 -4.78042969 11.73496094 -5.35351562 12.70117188 C-5.95873047 13.70728516 -6.56394531 14.71339844 -7.1875 15.75 C-8.47459234 17.9207282 -9.75968984 20.09264023 -11.04296875 22.265625 C-11.70216309 23.38130859 -12.36135742 24.49699219 -13.04052734 25.64648438 C-16.10350818 30.88858564 -19.05305261 36.19206753 -22 41.5 C-27.13528386 50.72987428 -32.40213945 59.87239375 -37.75 68.98046875 C-41.92243959 76.1052819 -45.98495244 83.28546141 -50 90.5 C-55.13631389 99.72931402 -60.40212535 108.87236973 -65.75 117.98046875 C-69.92243959 125.1052819 -73.98495244 132.28546141 -78 139.5 C-83.13631389 148.72931402 -88.40212535 157.87236973 -93.75 166.98046875 C-97.92243959 174.1052819 -101.98495244 181.28546141 -106 188.5 C-111.13631389 197.72931402 -116.40212535 206.87236973 -121.75 215.98046875 C-126.52958103 224.14203011 -131.15348864 232.38444983 -135.75219727 240.64892578 C-139.72815635 247.77628267 -143.80163998 254.83939092 -147.9375 261.875 C-152.91733395 270.34965015 -157.75089103 278.89400177 -162.5 287.5 C-167.80212322 297.10813142 -173.23960865 306.62178932 -178.80078125 316.08203125 C-182.95900268 323.17161148 -187.0036613 330.31806095 -191 337.5 C-196.13625165 346.72934771 -201.40212624 355.87237125 -206.75 364.98046875 C-210.92243959 372.1052819 -214.98495244 379.28546141 -219 386.5 C-224.13631389 395.72931402 -229.40212535 404.87236973 -234.75 413.98046875 C-238.92243959 421.1052819 -242.98495244 428.28546141 -247 435.5 C-252.13631389 444.72931402 -257.40212535 453.87236973 -262.75 462.98046875 C-266.92243959 470.1052819 -270.98495244 477.28546141 -275 484.5 C-280.13631389 493.72931402 -285.40212535 502.87236973 -290.75 511.98046875 C-294.92243959 519.1052819 -298.98495244 526.28546141 -303 533.5 C-308.13631389 542.72931402 -313.40212535 551.87236973 -318.75 560.98046875 C-322.92243959 568.1052819 -326.98495244 575.28546141 -331 582.5 C-336.13631389 591.72931402 -341.40212535 600.87236973 -346.75 609.98046875 C-350.92243959 617.1052819 -354.98495244 624.28546141 -359 631.5 C-364.13631389 640.72931402 -369.40212535 649.87236973 -374.75 658.98046875 C-378.92243959 666.1052819 -382.98495244 673.28546141 -387 680.5 C-392.13631389 689.72931402 -397.40212535 698.87236973 -402.75 707.98046875 C-406.92243959 715.1052819 -410.98495244 722.28546141 -415 729.5 C-420.13631389 738.72931402 -425.40212535 747.87236973 -430.75 756.98046875 C-435.52958103 765.14203011 -440.15348864 773.38444983 -444.75219727 781.64892578 C-448.72815635 788.77628267 -452.80163998 795.83939092 -456.9375 802.875 C-461.91733395 811.34965015 -466.75089103 819.89400177 -471.5 828.5 C-476.79640469 838.0977687 -482.22680656 847.60192657 -487.78320312 857.05126953 C-492.71165028 865.45228601 -497.48370155 873.9359147 -502.20727539 882.45361328 C-503.28275605 884.38893294 -504.38240542 886.31105381 -505.5078125 888.21777344 C-507.08503043 890.95197324 -507.08503043 890.95197324 -507.9296875 893.94628906 C-509.20935278 897.37035584 -510.07618769 898.7573966 -513 901 C-516.37626051 901.56824605 -519.69881221 901.41003033 -523.1112051 901.28741306 C-524.63925985 901.25924361 -524.63925985 901.25924361 -526.1981844 901.23050508 C-528.36938834 901.18958728 -530.54044209 901.13991444 -532.71126489 901.08221533 C-536.90605685 900.97734942 -541.10018073 900.93741907 -545.2960108 900.89798818 C-550.94823574 900.84195748 -556.60004949 900.75538247 -562.25196838 900.67482853 C-564.83660943 900.63918179 -567.42125241 900.60367518 -570.0058971 900.56829444 C-575.60337641 900.49144783 -581.20083847 900.41343533 -586.79829049 900.33462746 C-595.17847977 900.21664708 -603.55869431 900.10053895 -611.93891445 899.98477403 C-626.22866209 899.78732106 -640.51838843 899.58836448 -654.80810356 899.3885746 C-669.27925027 899.18625398 -683.75040651 898.98463516 -698.22157478 898.78386307 C-699.13752504 898.77115479 -700.05347531 898.75844651 -700.99718164 898.74535314 C-705.66828104 898.68054743 -710.3393806 898.61575279 -715.0104802 898.55096185 C-748.78607836 898.08244971 -782.56165465 897.61237623 -816.33721924 897.14145088 C-849.816824 896.67465501 -883.29643718 896.20847033 -916.77606201 895.74311638 C-918.8811591 895.71385563 -920.98625618 895.68459486 -923.09135327 895.65533408 C-931.55190227 895.537734 -940.01245135 895.42013901 -948.47300051 895.30255012 C-972.12575981 894.97381142 -995.77851764 894.64496718 -1019.43127441 894.31604671 C-1020.50839277 894.30106813 -1021.58551113 894.28608954 -1022.69526944 894.27065705 C-1076.21109614 893.52644642 -1129.7269048 892.78094171 -1183.24271304 892.03540544 C-1254.80909206 891.03840597 -1326.37548556 890.04245402 -1397.94189453 889.04760742 C-1400.20114745 889.01620128 -1402.46040037 888.9847951 -1404.71965329 888.9533889 C-1410.35996334 888.8749822 -1416.00027338 888.79657577 -1421.64058343 888.71816942 C-1430.63488898 888.59313892 -1439.62919451 888.46810804 -1448.62350004 888.34307629 C-1450.86558187 888.31190869 -1453.10766369 888.2807412 -1455.34974552 888.24957383 C-1515.39951983 887.41481623 -1575.44928532 886.57942537 -1635.49904728 885.74378055 C-1636.54912163 885.72916786 -1637.59919598 885.71455517 -1638.68109076 885.69949966 C-1648.18118645 885.5672973 -1657.68128213 885.43509388 -1667.18137773 885.30288503 C-1690.2058336 884.98246366 -1713.23029024 884.66209749 -1736.2547493 884.34190488 C-1738.34189181 884.31287953 -1740.42903432 884.28385418 -1742.51617682 884.25482882 C-1745.63820009 884.21141174 -1748.76022336 884.16799467 -1751.88224663 884.1245776 C-1790.68842913 883.58490945 -1829.49460568 883.04481644 -1868.3007713 882.50393576 C-1872.04130842 882.45180167 -1875.78184557 882.39966921 -1879.52238274 882.34753799 C-1880.44026074 882.33474546 -1881.35813875 882.32195293 -1882.30383124 882.30877275 C-1896.70482563 882.10807532 -1911.10582559 881.90778026 -1925.50682802 881.70766039 C-1939.74668914 881.50977038 -1953.98654382 881.3114224 -1968.22639224 881.11262125 C-1975.81066756 881.00674916 -1983.39494516 880.90105021 -1990.979231 880.79593451 C-2030.65365179 880.24592906 -2070.3270174 879.64485853 -2110 879 C-2110.41806412 878.24460434 -2110.83612823 877.48920868 -2111.26686096 876.71092224 C-2112.85278162 873.846763 -2114.43983528 870.98323729 -2116.02760315 868.12010193 C-2116.70815658 866.89237869 -2117.38828715 865.66442093 -2118.06794739 864.436203 C-2122.59590102 856.25457403 -2127.20397284 848.12767898 -2131.9375 840.0625 C-2132.53913467 839.0372522 -2133.14076935 838.01200439 -2133.76063538 836.95568848 C-2134.57521461 835.56803284 -2134.57521461 835.56803284 -2135.40625 834.15234375 C-2139.3008262 827.50555738 -2143.12280004 820.81780045 -2146.9375 814.125 C-2152.1003969 805.06902032 -2157.28373753 796.02539828 -2162.5 787 C-2167.66838962 778.05450125 -2172.81416346 769.09636548 -2177.9375 760.125 C-2178.26860779 759.54528442 -2178.59971558 758.96556885 -2178.94085693 758.36828613 C-2182.31521064 752.45983362 -2185.68690462 746.54986911 -2189.05583191 740.63832092 C-2190.74476211 737.67509502 -2192.43465122 734.71241688 -2194.125 731.75 C-2194.45746735 731.16723297 -2194.78993469 730.58446594 -2195.13247681 729.98403931 C-2199.74769213 721.8979036 -2204.41606336 713.84441903 -2209.125 705.8125 C-2214.54963146 696.55948769 -2219.81674912 687.22602065 -2225.03613281 677.85595703 C-2228.25139816 672.09324002 -2231.50649275 666.3619748 -2234.875 660.6875 C-2239.14372212 653.4903427 -2243.34389665 646.25436891 -2247.51177979 638.9984436 C-2248.25121748 637.71252582 -2248.99221454 636.4275034 -2249.73480225 635.1434021 C-2250.77791446 633.33885963 -2251.81542181 631.53120835 -2252.8515625 629.72265625 C-2253.45822754 628.66828369 -2254.06489258 627.61391113 -2254.68994141 626.52758789 C-2256 624 -2256 624 -2256 622 C-2256.66 622 -2257.32 622 -2258 622 C-2256.34587201 617.46874514 -2254.10294229 613.38138882 -2251.75 609.1875 C-2251.31381348 608.40616699 -2250.87762695 607.62483398 -2250.42822266 606.81982422 C-2246.24004651 599.35622355 -2241.9209478 591.970182 -2237.59448242 584.58618164 C-2233.03318601 576.79445001 -2228.53372543 568.96864309 -2224.0625 561.125 C-2218.28808543 550.99674706 -2212.48108878 540.88796546 -2206.64697266 530.79394531 C-2202.3926282 523.42778163 -2198.16650945 516.04587811 -2193.953125 508.65625 C-2188.68135856 499.4103827 -2183.3770493 490.18518608 -2178 481 C-2172.99254896 472.44450589 -2168.03845141 463.85975755 -2163.125 455.25 C-2162.79211975 454.6667395 -2162.4592395 454.083479 -2162.11627197 453.48254395 C-2159.74261615 449.32258771 -2157.371073 445.16142877 -2155 441 C-2152.29310624 436.24917808 -2149.58529654 431.49888166 -2146.875 426.75 C-2146.37543793 425.87462585 -2146.37543793 425.87462585 -2145.86578369 424.98156738 C-2140.72647333 415.98021232 -2135.52288709 407.0178681 -2130.28637695 398.07275391 C-2125.48564601 389.86056671 -2120.75850731 381.60722821 -2116.046875 373.34375 C-2111.22207465 364.88179246 -2106.37431361 356.43357068 -2101.5 348 C-2096.307595 339.01459064 -2091.14333816 330.01354666 -2086 321 C-2077.76426888 306.56860638 -2069.45951043 292.17743616 -2061.14550781 277.79101562 C-2059.28397328 274.56931725 -2057.42301161 271.34728921 -2055.5625 268.125 C-2054.94697266 267.05894531 -2054.33144531 265.99289062 -2053.69726562 264.89453125 C-2048.74546958 256.31004403 -2043.83175132 247.70419707 -2038.92263794 239.09527588 C-2033.76583392 230.05528292 -2028.54456231 221.05474679 -2023.28662109 212.07324219 C-2018.48588404 203.86084825 -2013.75859742 195.60738625 -2009.046875 187.34375 C-2004.22207465 178.88179246 -1999.37431361 170.43357068 -1994.5 162 C-1989.307595 153.01459064 -1984.14333816 144.01354666 -1979 135 C-1970.76426888 120.56860638 -1962.45951043 106.17743616 -1954.14550781 91.79101562 C-1952.28397328 88.56931725 -1950.42301161 85.34728921 -1948.5625 82.125 C-1947.94697266 81.05894531 -1947.33144531 79.99289062 -1946.69726562 78.89453125 C-1941.75013351 70.31812948 -1936.84005803 61.7209291 -1931.93673706 53.1194458 C-1926.46785276 43.52882351 -1920.93127655 33.97998675 -1915.33959961 24.46044922 C-1914.52567749 23.07237061 -1914.52567749 23.07237061 -1913.6953125 21.65625 C-1913.22109863 20.84994141 -1912.74688477 20.04363281 -1912.25830078 19.21289062 C-1911.09751292 17.17148955 -1910.04127728 15.10400713 -1909 13 C-1824.79098749 12.34565699 -1740.58190663 11.69929575 -1473.33544922 9.76318359 C-1472.38974894 9.75648705 -1471.44404865 9.7497905 -1470.46969078 9.74289103 C-1414.28146225 9.34502236 -1358.09321958 8.94916567 -1301.90497252 8.55392277 C-1280.63621709 8.40431168 -1259.36746277 8.25454379 -1238.09870864 8.10474783 C-1164.75725539 7.58820378 -1091.4157999 7.07197872 -1018.07433591 6.55696071 C-1012.39886465 6.51710631 -1006.7233934 6.47725017 -1001.04792214 6.4373943 C-998.7741852 6.42142711 -996.50044826 6.40545993 -994.22671132 6.38949275 C-983.97254785 6.31748336 -973.71838439 6.24547306 -963.46422094 6.17346098 C-961.18111508 6.15742747 -958.89800922 6.14139414 -956.61490335 6.12536099 C-882.82459438 5.60716699 -809.03429999 5.08693573 -735.24401501 4.56533725 C-681.76557814 4.18731742 -628.28713961 3.80954298 -574.80868721 3.43372536 C-573.70716191 3.42598433 -572.60563661 3.41824329 -571.47073175 3.41026769 C-547.28602143 3.24031411 -523.10131004 3.07051475 -498.91659763 2.90085898 C-490.26648598 2.84017662 -481.61637442 2.77948086 -472.96626292 2.71877772 C-470.81569819 2.7036859 -468.66513345 2.68859464 -466.51456871 2.67350397 C-432.52157826 2.43496459 -398.52859953 2.19480106 -364.5356267 1.95376435 C-330.38132343 1.71159369 -296.2270083 1.47117235 -262.07267634 1.23308115 C-257.32911649 1.2000134 -252.58555678 1.16692687 -247.84199715 1.13382912 C-246.91252991 1.12734457 -245.98306267 1.12086003 -245.02542975 1.11417898 C-231.36405134 1.01882295 -217.70268419 0.921962 -204.04132271 0.82421303 C-184.04595058 0.68122271 -164.05056407 0.5404638 -144.05514526 0.40414429 C-142.89835894 0.39625093 -142.89835894 0.39625093 -141.7182032 0.38819811 C-94.47877638 0.06631628 -47.24065153 -0.16165199 0 0 Z " fill="#69A944" transform="translate(3004,1850)"/>
<path d="M0 0 C97.00409627 -0.06259678 194.00824038 -0.08806403 634.46080939 0.3855015 C650.35950677 0.41382601 666.25820477 0.44156682 682.15690613 0.46757126 C683.27741874 0.46940432 683.27741874 0.46940432 684.42056797 0.47127441 C688.18303063 0.47742556 691.9454933 0.48356502 695.70795599 0.48970072 C723.31866891 0.53473975 750.92937325 0.58307576 778.54007077 0.63677824 C781.30745266 0.64215208 784.07483457 0.64751755 786.84221649 0.65287781 C787.86182721 0.65485593 787.86182721 0.65485593 788.90203613 0.65687402 C798.90372535 0.67622057 808.90541655 0.69330057 818.90711212 0.70909119 C874.61138538 0.79792745 930.30399669 0.97259485 986 2 C986.42330093 2.76325089 986.84660187 3.52650177 987.2827301 4.31288147 C988.88221763 7.19626814 990.48221409 10.07937125 992.08253479 12.96229553 C992.76968355 14.20040583 993.45664036 15.43862269 994.14338684 16.67695618 C999.80416988 26.8839385 1005.55381083 37.03714493 1011.36767578 47.15771484 C1014.54220823 52.68537066 1017.70986656 58.21695856 1020.875 63.75 C1021.21389252 64.34232422 1021.55278503 64.93464844 1021.90194702 65.54492188 C1027.3192343 75.01732335 1032.67014618 84.52541657 1037.98950195 94.05322266 C1042.12928635 101.46262687 1046.32047442 108.84094414 1050.54101562 116.20458984 C1054.13479125 122.47708131 1057.6985704 128.76594646 1061.25 135.0625 C1065.77771623 143.08896824 1070.33752952 151.09655103 1074.91723633 159.09344482 C1080.40849843 168.68212929 1085.86259191 178.28989766 1091.25 187.9375 C1097.42786056 199.00030105 1103.69664719 210.00834182 1110 221 C1112.6267792 225.58231657 1115.2519353 230.1655565 1117.875 234.75 C1118.21446655 235.34313995 1118.55393311 235.93627991 1118.90368652 236.5473938 C1124.27957292 245.94435266 1129.57745801 255.38283623 1134.84667969 264.84008789 C1138.85278191 272.00809236 1142.9638193 279.10857848 1147.125 286.1875 C1152.07688657 294.61268937 1156.83023759 303.12120566 1161.46801758 311.72265625 C1165.66965539 319.47909988 1170.10417676 327.08574723 1174.578125 334.6875 C1179.00230554 342.22893685 1183.27709288 349.84427453 1187.5 357.5 C1192.20345651 366.02569628 1196.99584284 374.4851362 1201.9375 382.875 C1207.15129936 391.73282878 1212.18115647 400.67745902 1217.125 409.6875 C1223.10499564 420.58423527 1229.1833367 431.41680671 1235.38378906 442.18994141 C1238.55588482 447.70517134 1241.71615533 453.22717354 1244.875 458.75 C1245.21398315 459.34250549 1245.55296631 459.93501099 1245.90222168 460.54547119 C1251.31942518 470.01768568 1256.6702455 479.52559446 1261.98950195 489.05322266 C1266.12928635 496.46262687 1270.32047442 503.84094414 1274.54101562 511.20458984 C1278.13479125 517.47708131 1281.6985704 523.76594646 1285.25 530.0625 C1289.77771623 538.08896824 1294.33752952 546.09655103 1298.91723633 554.09344482 C1304.40849843 563.68212929 1309.86259191 573.28989766 1315.25 582.9375 C1321.42786056 594.00030105 1327.69664719 605.00834182 1334 616 C1336.6267792 620.58231657 1339.2519353 625.1655565 1341.875 629.75 C1342.21446655 630.34313995 1342.55393311 630.93627991 1342.90368652 631.5473938 C1348.28250619 640.94947996 1353.5828631 650.39334348 1358.85546875 659.85546875 C1362.77708172 666.87168787 1366.79960577 673.8221748 1370.875 680.75 C1376.10735579 689.65046751 1381.15857359 698.63716493 1386.125 707.6875 C1392.10511584 718.58417069 1398.1833352 729.4168041 1404.38378906 740.18994141 C1407.55588482 745.70517134 1410.71615533 751.22717354 1413.875 756.75 C1414.21398315 757.34250549 1414.55296631 757.93501099 1414.90222168 758.54547119 C1420.31942518 768.01768568 1425.6702455 777.52559446 1430.98950195 787.05322266 C1435.12928635 794.46262687 1439.32047442 801.84094414 1443.54101562 809.20458984 C1447.13479125 815.47708131 1450.6985704 821.76594646 1454.25 828.0625 C1458.77771623 836.08896824 1463.33752952 844.09655103 1467.91723633 852.09344482 C1473.40849843 861.68212929 1478.86259191 871.28989766 1484.25 880.9375 C1490.42786056 892.00030105 1496.69664719 903.00834182 1503 914 C1505.6267792 918.58231657 1508.2519353 923.1655565 1510.875 927.75 C1511.21446655 928.34313995 1511.55393311 928.93627991 1511.90368652 929.5473938 C1517.28250619 938.94947996 1522.5828631 948.39334348 1527.85546875 957.85546875 C1531.77708172 964.87168787 1535.79960577 971.8221748 1539.875 978.75 C1545.10735579 987.65046751 1550.15857359 996.63716493 1555.125 1005.6875 C1561.10511584 1016.58417069 1567.1833352 1027.4168041 1573.38378906 1038.18994141 C1576.55588482 1043.70517134 1579.71615533 1049.22717354 1582.875 1054.75 C1583.21398315 1055.34250549 1583.55296631 1055.93501099 1583.90222168 1056.54547119 C1589.31942518 1066.01768568 1594.6702455 1075.52559446 1599.98950195 1085.05322266 C1604.12928635 1092.46262687 1608.32047442 1099.84094414 1612.54101562 1107.20458984 C1616.13479125 1113.47708131 1619.6985704 1119.76594646 1623.25 1126.0625 C1627.77771623 1134.08896824 1632.33752952 1142.09655103 1636.91723633 1150.09344482 C1642.40849843 1159.68212929 1647.86259191 1169.28989766 1653.25 1178.9375 C1659.42786056 1190.00030105 1665.69664719 1201.00834182 1672 1212 C1674.6267792 1216.58231657 1677.2519353 1221.1655565 1679.875 1225.75 C1680.21446655 1226.34313995 1680.55393311 1226.93627991 1680.90368652 1227.5473938 C1686.28250619 1236.94947996 1691.5828631 1246.39334348 1696.85546875 1255.85546875 C1700.77708172 1262.87168787 1704.79960577 1269.8221748 1708.875 1276.75 C1714.10735579 1285.65046751 1719.15857359 1294.63716493 1724.125 1303.6875 C1730.10511584 1314.58417069 1736.1833352 1325.4168041 1742.38378906 1336.18994141 C1745.55588482 1341.70517134 1748.71615533 1347.22717354 1751.875 1352.75 C1752.21398315 1353.34250549 1752.55296631 1353.93501099 1752.90222168 1354.54547119 C1758.31942518 1364.01768568 1763.6702455 1373.52559446 1768.98950195 1383.05322266 C1773.12064426 1390.44715922 1777.30274284 1397.81027236 1781.51464844 1405.15844727 C1785.91978578 1412.84678393 1790.28226806 1420.55887905 1794.63696289 1428.27587891 C1795.14864014 1429.18257324 1795.66031738 1430.08926758 1796.1875 1431.0234375 C1796.90486328 1432.31072754 1796.90486328 1432.31072754 1797.63671875 1433.62402344 C1798.49497016 1435.11981547 1799.38919835 1436.59606697 1800.33203125 1438.04003906 C1801.5 1439.8515625 1801.5 1439.8515625 1803 1443 C1801.95327651 1446.4011672 1800.32928391 1449.30042223 1798.453125 1452.30859375 C1797.94515381 1453.12666504 1797.43718262 1453.94473633 1796.91381836 1454.78759766 C1796.3647583 1455.66206543 1795.81569824 1456.5365332 1795.25 1457.4375 C1794.67580322 1458.35837402 1794.10160645 1459.27924805 1793.51000977 1460.22802734 C1787.62155661 1469.6511471 1781.64494557 1479.01829383 1775.66699219 1488.38476562 C1768.58978698 1499.48772729 1761.59448596 1510.64170267 1754.625 1521.8125 C1749.22014625 1530.47540372 1743.76385146 1539.10351185 1738.27001953 1547.71020508 C1733.97373684 1554.44901074 1729.72786072 1561.21809063 1725.5 1568 C1719.49731887 1577.62773232 1713.42796883 1587.21095497 1707.328125 1596.77734375 C1704.22957321 1601.63692368 1701.1413097 1606.50288966 1698.0625 1611.375 C1697.58925293 1612.12378418 1697.11600586 1612.87256836 1696.62841797 1613.64404297 C1693.74539508 1618.2132353 1690.8798218 1622.79301193 1688.0234375 1627.37890625 C1687.34531006 1628.46703613 1686.66718262 1629.55516602 1685.96850586 1630.67626953 C1684.63948969 1632.81029981 1683.31211226 1634.94535175 1681.98657227 1637.08154297 C1681.38127686 1638.05365723 1680.77598145 1639.02577148 1680.15234375 1640.02734375 C1679.61601318 1640.89093506 1679.07968262 1641.75452637 1678.52709961 1642.64428711 C1678.02315674 1643.42167236 1677.51921387 1644.19905762 1677 1645 C1676.67288194 1645.69456745 1676.34576388 1646.38913491 1676.00873315 1647.10474986 C1672.6691897 1650.25562641 1668.75940231 1649.63876891 1664.33316994 1649.67971516 C1663.32723365 1649.70459412 1662.32129737 1649.72947309 1661.28487817 1649.75510596 C1657.89248926 1649.83425111 1654.50024532 1649.88523249 1651.10733032 1649.93659973 C1648.67812581 1649.98772639 1646.24895806 1650.04062585 1643.8198278 1650.09516609 C1638.55169104 1650.20965222 1633.28352446 1650.31214035 1628.01496196 1650.40414751 C1620.23271184 1650.54022619 1612.4510466 1650.69902602 1604.66935138 1650.86354045 C1592.64780868 1651.11745224 1580.62606573 1651.35919908 1568.60410167 1651.59223996 C1550.36519789 1651.94614192 1532.12744386 1652.34244499 1513.88983154 1652.75717163 C1512.47618966 1652.78925696 1511.06254757 1652.82133294 1509.64890526 1652.85339963 C1503.96022631 1652.9824545 1498.27154874 1653.11156988 1492.58287679 1653.24093353 C1477.12068531 1653.5922714 1461.6582537 1653.93260096 1446.19579813 1654.27208597 C1443.16137011 1654.3387161 1440.12694339 1654.40540586 1437.09251663 1654.4720935 C1431.71209924 1654.59033718 1426.33168111 1654.70854714 1420.9512613 1654.82668061 C1409.79188619 1655.07170182 1398.63252182 1655.31720801 1387.4731636 1655.56299782 C1385.83710089 1655.59903138 1384.20103817 1655.63506494 1382.56497545 1655.6710985 C1380.09693384 1655.72545678 1377.62889225 1655.77981559 1375.16085069 1655.83417567 C1344.80292629 1656.50281687 1314.44497307 1657.17014102 1284.08700583 1657.83683363 C1257.22008633 1658.42686844 1230.35319614 1659.0182217 1203.48632812 1659.6105957 C1172.99193328 1660.2829477 1142.49751964 1660.95443809 1112.0030762 1661.62458259 C1108.75933047 1661.69586953 1105.51558479 1661.76715888 1102.27183914 1661.83844948 C1101.47366533 1661.85599093 1100.67549152 1661.87353239 1099.85313062 1661.8916054 C1087.85818424 1662.15523418 1075.86325253 1662.4195235 1063.86832809 1662.68414879 C1050.30457703 1662.9833822 1036.74080587 1663.28168513 1023.17700706 1663.57874688 C1016.27252111 1663.72998681 1009.36804485 1663.8816394 1002.46359444 1664.0344944 C996.14697393 1664.17429257 989.83032788 1664.31287123 983.51365931 1664.45048044 C981.23188724 1664.50040183 978.95012481 1664.55076672 976.66837339 1664.60162362 C971.7241539 1664.71171694 966.78011715 1664.81667668 961.83539462 1664.9014467 C958.90050939 1664.95281638 955.98183926 1665.04638055 953.04845738 1665.18000567 C951.97389248 1665.21907011 950.89932757 1665.25813455 949.79220009 1665.29838276 C948.92928372 1665.34400736 948.06636735 1665.38963196 947.177302 1665.43663913 C944.05870131 1664.81123067 943.10348582 1663.23189227 941.29296875 1660.69921875 C940.21141224 1658.71997035 939.17907493 1656.71332523 938.1875 1654.6875 C937.61257813 1653.61242188 937.03765625 1652.53734375 936.4453125 1651.4296875 C935.2220021 1649.1389529 934.01720275 1646.83825201 932.82958984 1644.52880859 C929.84929132 1638.7805787 926.66125046 1633.15002491 923.5 1627.5 C922.23940937 1625.21884612 920.97899216 1622.93759641 919.71875 1620.65625 C916.23436773 1614.38436192 912.63798329 1608.18375037 909 1602 C903.37603639 1592.44053137 897.96344799 1582.77705316 892.60546875 1573.06640625 C888.50253068 1565.65053683 884.29744789 1558.30469133 880 1551 C874.37603639 1541.44053137 868.96344799 1531.77705316 863.60546875 1522.06640625 C859.50253068 1514.65053683 855.29744789 1507.30469133 851 1500 C845.37603639 1490.44053137 839.96344799 1480.77705316 834.60546875 1471.06640625 C830.50253068 1463.65053683 826.29744789 1456.30469133 822 1449 C816.37603639 1439.44053137 810.96344799 1429.77705316 805.60546875 1420.06640625 C801.50253068 1412.65053683 797.29744789 1405.30469133 793 1398 C787.37603639 1388.44053137 781.96344799 1378.77705316 776.60546875 1369.06640625 C772.50252885 1361.6505335 768.29734299 1354.30475533 764 1347 C758.3343635 1337.36681523 752.86953085 1327.63370614 747.46264648 1317.85327148 C742.27240299 1308.46932742 736.97847903 1299.14937609 731.63671875 1289.85107422 C728.43835474 1284.27969968 725.25055133 1278.70227967 722.0625 1273.125 C721.72066681 1272.52712677 721.37883362 1271.92925354 721.02664185 1271.31326294 C715.96767585 1262.46376713 710.93857646 1253.59779936 705.93164062 1244.71875 C701.33391266 1236.5725915 696.68792405 1228.45430961 692.03863525 1220.33752441 C687.26642711 1212.00318036 682.54940142 1203.63968101 677.875 1195.25 C673.36235263 1187.15272992 668.75861161 1179.11720563 664.0625 1171.125 C658.42038573 1161.52281393 652.98597531 1151.81779673 647.60571289 1142.06689453 C643.50272978 1134.65084148 639.29754021 1127.30484825 635 1120 C629.37603639 1110.44053137 623.96344799 1100.77705316 618.60546875 1091.06640625 C614.50253068 1083.65053683 610.29744789 1076.30469133 606 1069 C600.37603639 1059.44053137 594.96344799 1049.77705316 589.60546875 1040.06640625 C585.50253068 1032.65053683 581.29744789 1025.30469133 577 1018 C571.37603639 1008.44053137 565.96344799 998.77705316 560.60546875 989.06640625 C556.50253068 981.65053683 552.29744789 974.30469133 548 967 C542.37603639 957.44053137 536.96344799 947.77705316 531.60546875 938.06640625 C527.50253068 930.65053683 523.29744789 923.30469133 519 916 C513.37603639 906.44053137 507.96344799 896.77705316 502.60546875 887.06640625 C498.50252885 879.6505335 494.29734299 872.30475533 490 865 C484.3343635 855.36681523 478.86953085 845.63370614 473.46264648 835.85327148 C468.27240299 826.46932742 462.97847903 817.14937609 457.63671875 807.85107422 C454.43835474 802.27969968 451.25055133 796.70227967 448.0625 791.125 C447.72066681 790.52712677 447.37883362 789.92925354 447.02664185 789.31326294 C441.96767585 780.46376713 436.93857646 771.59779936 431.93164062 762.71875 C427.33391266 754.5725915 422.68792405 746.45430961 418.03863525 738.33752441 C413.26642711 730.00318036 408.54940142 721.63968101 403.875 713.25 C399.36235263 705.15272992 394.75861161 697.11720563 390.0625 689.125 C384.42038573 679.52281393 378.98597531 669.81779673 373.60571289 660.06689453 C369.50272978 652.65084148 365.29754021 645.30484825 361 638 C355.37603639 628.44053137 349.96344799 618.77705316 344.60546875 609.06640625 C340.50253068 601.65053683 336.29744789 594.30469133 332 587 C326.37603639 577.44053137 320.96344799 567.77705316 315.60546875 558.06640625 C311.50253068 550.65053683 307.29744789 543.30469133 303 536 C297.37603639 526.44053137 291.96344799 516.77705316 286.60546875 507.06640625 C282.50253068 499.65053683 278.29744789 492.30469133 274 485 C268.37603639 475.44053137 262.96344799 465.77705316 257.60546875 456.06640625 C253.50253068 448.65053683 249.29744789 441.30469133 245 434 C239.37603639 424.44053137 233.96344799 414.77705316 228.60546875 405.06640625 C224.50252885 397.6505335 220.29734299 390.30475533 216 383 C210.3343635 373.36681523 204.86953085 363.63370614 199.46264648 353.85327148 C194.27240299 344.46932742 188.97847903 335.14937609 183.63671875 325.85107422 C180.43835474 320.27969968 177.25055133 314.70227967 174.0625 309.125 C173.72066681 308.52712677 173.37883362 307.92925354 173.02664185 307.31326294 C167.96848691 298.46518591 162.94065135 289.60038479 157.93383789 280.72314453 C153.64950003 273.13329496 149.32875654 265.56455845 145 258 C139.61467167 248.58906859 134.25723492 239.16302486 128.93139648 229.71826172 C124.33368897 221.5723004 119.68783379 213.45415203 115.03863525 205.33752441 C110.26642711 197.00318036 105.54940142 188.63968101 100.875 180.25 C96.36235263 172.15272992 91.75861161 164.11720563 87.0625 156.125 C81.42038573 146.52281393 75.98597531 136.81779673 70.60571289 127.06689453 C66.50272978 119.65084148 62.29754021 112.30484825 58 105 C52.37603639 95.44053137 46.96344799 85.77705316 41.60546875 76.06640625 C36.95641642 67.66346074 32.15450402 59.36153424 27.28491211 51.08496094 C22.12297048 42.28097055 17.15869648 33.37282527 12.23632812 24.43359375 C11.65431641 23.37785156 11.07230469 22.32210938 10.47265625 21.234375 C9.90691895 20.20763672 9.34118164 19.18089844 8.75830078 18.12304688 C6.35402941 13.8526443 3.82854862 9.65719177 1.28295898 5.46972656 C0 3 0 3 0 0 Z " fill="#00B3B9" transform="translate(1447,0)"/>
<path d="M0 0 C1.78051758 0.17260742 1.78051758 0.17260742 4 1 C5.74487305 3.23950195 5.74487305 3.23950195 7.51171875 6.23828125 C8.17800293 7.35364258 8.84428711 8.46900391 9.53076172 9.61816406 C10.24979904 10.84953665 10.96870814 12.08098411 11.6875 13.3125 C12.4441695 14.58768978 13.20216711 15.86209233 13.96142578 17.13574219 C15.5374654 19.7816979 17.10772289 22.43096124 18.67431641 25.08251953 C21.50707317 29.86695622 24.40364079 34.61122358 27.30200195 39.35620117 C34.53298205 51.19436561 41.64158908 63.10262297 48.7074585 75.03991699 C54.2466722 84.39611734 59.83974769 93.71654964 65.5 103 C71.98326787 113.63328845 78.36477342 124.3236673 84.70800781 135.04101562 C90.24705071 144.39684031 95.83996139 153.71690012 101.5 163 C107.98326787 173.63328845 114.36477342 184.3236673 120.70800781 195.04101562 C126.24705071 204.39684031 131.83996139 213.71690012 137.5 223 C143.98326787 233.63328845 150.36477342 244.3236673 156.70800781 255.04101562 C162.24705071 264.39684031 167.83996139 273.71690012 173.5 283 C179.98326787 293.63328845 186.36477342 304.3236673 192.70800781 315.04101562 C198.24705071 324.39684031 203.83996139 333.71690012 209.5 343 C215.98326787 353.63328845 222.36477342 364.3236673 228.70800781 375.04101562 C234.24705071 384.39684031 239.83996139 393.71690012 245.5 403 C251.98326787 413.63328845 258.36477342 424.3236673 264.70800781 435.04101562 C270.24705071 444.39684031 275.83996139 453.71690012 281.5 463 C287.98326787 473.63328845 294.36477342 484.3236673 300.70800781 495.04101562 C306.24705071 504.39684031 311.83996139 513.71690012 317.5 523 C323.57165941 532.95820428 329.5594014 542.96307483 335.5 553 C341.29340693 562.78786758 347.12352962 572.55114165 353.03451538 582.26852417 C354.1073309 584.03343224 355.17762482 585.79984639 356.24731445 587.56665039 C359.16282579 592.37417606 362.0892135 597.16825769 365.12890625 601.8984375 C365.57153809 602.59831787 366.01416992 603.29819824 366.47021484 604.01928711 C367.57471899 605.7597783 368.69841084 607.48805611 369.82421875 609.21484375 C371 612 371 612 370.26000977 614.3293457 C368.9414851 617.12402528 367.52374034 619.818295 366.015625 622.515625 C365.1181958 624.1258252 365.1181958 624.1258252 364.20263672 625.76855469 C363.5582666 626.91743164 362.91389648 628.06630859 362.25 629.25 C361.5741347 630.45982309 360.89852005 631.66978623 360.22314453 632.87988281 C358.48750607 635.98799752 356.74828201 639.09409036 355.00817871 642.19970703 C353.45365872 644.97559526 351.90277698 647.7535136 350.3515625 650.53125 C344.23074817 661.48446603 338.07532104 672.41772112 331.89404297 683.33691406 C327.90920261 690.38005607 323.94997188 697.43725188 320 704.5 C312.83966109 717.30136845 305.62203755 730.0699008 298.39550781 742.83398438 C291.64416074 754.76068017 284.92035813 766.70215253 278.23071289 778.66357422 C273.80818154 786.56738596 269.35644508 794.45430869 264.89453125 802.3359375 C260.90963231 809.37946347 256.95010006 816.43690717 253 823.5 C247.99020403 832.45791332 242.95379517 841.40024115 237.89672852 850.33154297 C233.88767249 857.4167797 229.90876517 864.51852549 225.9375 871.625 C221.66298819 879.27214861 217.3581974 886.90023427 213 894.5 C206.8513503 905.2240317 200.81493734 916.00973795 194.78662109 926.80175781 C186.85527697 940.99970917 178.90758223 955.18798078 170.89208984 969.33862305 C168.10180349 974.26824143 165.32394899 979.20432419 162.56640625 984.15234375 C156.78934366 994.51681239 150.95547508 1004.83570099 144.9375 1015.0625 C139.67568674 1024.01073332 134.65908921 1033.06674787 129.75146484 1042.21337891 C125.81032994 1049.54597357 121.73621193 1056.79031299 117.58496094 1064.00561523 C113.7188907 1070.72830988 109.90955206 1077.48109126 106.125 1084.25 C105.54057129 1085.29518799 104.95614258 1086.34037598 104.35400391 1087.41723633 C103.1646078 1089.54526011 101.97548147 1091.67343469 100.78662109 1093.80175781 C90.70867411 1111.84235708 80.57655402 1129.85139394 70.39550781 1147.83398438 C63.64416074 1159.76068017 56.92035813 1171.70215253 50.23071289 1183.66357422 C45.80818154 1191.56738596 41.35644508 1199.45430869 36.89453125 1207.3359375 C32.90963231 1214.37946347 28.95010006 1221.43690717 25 1228.5 C19.99020403 1237.45791332 14.95379517 1246.40024115 9.89672852 1255.33154297 C5.88767249 1262.4167797 1.90876517 1269.51852549 -2.0625 1276.625 C-6.33701181 1284.27214861 -10.6418026 1291.90023427 -15 1299.5 C-21.1486497 1310.2240317 -27.18506266 1321.00973795 -33.21337891 1331.80175781 C-41.14472303 1345.99970917 -49.09241777 1360.18798078 -57.10791016 1374.33862305 C-59.89819651 1379.26824143 -62.67605101 1384.20432419 -65.43359375 1389.15234375 C-71.21065634 1399.51681239 -77.04452492 1409.83570099 -83.0625 1420.0625 C-88.32431326 1429.01073332 -93.34091079 1438.06674787 -98.24853516 1447.21337891 C-102.18967006 1454.54597357 -106.26378807 1461.79031299 -110.41503906 1469.00561523 C-114.2811093 1475.72830988 -118.09044794 1482.48109126 -121.875 1489.25 C-122.45942871 1490.29518799 -123.04385742 1491.34037598 -123.64599609 1492.41723633 C-124.8353922 1494.54526011 -126.02451853 1496.67343469 -127.21337891 1498.80175781 C-137.29132589 1516.84235708 -147.42344598 1534.85139394 -157.60449219 1552.83398438 C-164.35583926 1564.76068017 -171.07964187 1576.70215253 -177.76928711 1588.66357422 C-182.19181846 1596.56738596 -186.64355492 1604.45430869 -191.10546875 1612.3359375 C-195.09036769 1619.37946347 -199.04989994 1626.43690717 -203 1633.5 C-208.00979597 1642.45791332 -213.04620483 1651.40024115 -218.10327148 1660.33154297 C-222.11232751 1667.4167797 -226.09123483 1674.51852549 -230.0625 1681.625 C-234.33701181 1689.27214861 -238.6418026 1696.90023427 -243 1704.5 C-249.1486497 1715.2240317 -255.18506266 1726.00973795 -261.21337891 1736.80175781 C-269.14472303 1750.99970917 -277.09241777 1765.18798078 -285.10791016 1779.33862305 C-287.89819651 1784.26824143 -290.67605101 1789.20432419 -293.43359375 1794.15234375 C-299.21065634 1804.51681239 -305.04452492 1814.83570099 -311.0625 1825.0625 C-316.32431326 1834.01073332 -321.34091079 1843.06674787 -326.24853516 1852.21337891 C-330.18967006 1859.54597357 -334.26378807 1866.79031299 -338.41503906 1874.00561523 C-342.2811093 1880.72830988 -346.09044794 1887.48109126 -349.875 1894.25 C-350.45942871 1895.29518799 -351.04385742 1896.34037598 -351.64599609 1897.41723633 C-352.8353922 1899.54526011 -354.02451853 1901.67343469 -355.21337891 1903.80175781 C-365.29132589 1921.84235708 -375.42344598 1939.85139394 -385.60449219 1957.83398438 C-392.35583926 1969.76068017 -399.07964187 1981.70215253 -405.76928711 1993.66357422 C-410.19181846 2001.56738596 -414.64355492 2009.45430869 -419.10546875 2017.3359375 C-423.09036769 2024.37946347 -427.04989994 2031.43690717 -431 2038.5 C-436.01107988 2047.46020905 -441.04772336 2056.40543417 -446.10766602 2065.33813477 C-448.89799962 2070.26793504 -451.67596258 2075.20416551 -454.43359375 2080.15234375 C-460.21065634 2090.51681239 -466.04452492 2100.83570099 -472.0625 2111.0625 C-477.32431326 2120.01073332 -482.34091079 2129.06674787 -487.24853516 2138.21337891 C-491.18967006 2145.54597357 -495.26378807 2152.79031299 -499.41503906 2160.00561523 C-503.2811093 2166.72830988 -507.09044794 2173.48109126 -510.875 2180.25 C-511.75164307 2181.81778198 -511.75164307 2181.81778198 -512.64599609 2183.41723633 C-513.8353922 2185.54526011 -515.02451853 2187.67343469 -516.21337891 2189.80175781 C-526.29132589 2207.84235708 -536.42344598 2225.85139394 -546.60449219 2243.83398438 C-553.35583926 2255.76068017 -560.07964187 2267.70215253 -566.76928711 2279.66357422 C-571.19181846 2287.56738596 -575.64355492 2295.45430869 -580.10546875 2303.3359375 C-584.67507741 2311.41296975 -589.20915048 2319.50962249 -593.73876953 2327.60913086 C-599.79115294 2338.42570424 -605.89122322 2349.21519877 -612 2360 C-613.2927306 2356.12180821 -612.49528471 2354.15072196 -611.48828125 2350.19921875 C-611.31878464 2349.52639359 -611.14928802 2348.85356842 -610.97465515 2348.16035461 C-610.42826649 2346.00070571 -609.87031072 2343.8442234 -609.3125 2341.6875 C-608.95567363 2340.2781735 -608.59954684 2338.86866968 -608.24414062 2337.45898438 C-606.58759912 2330.92822922 -604.85717573 2324.428593 -602.98046875 2317.95703125 C-600.78067389 2310.35444053 -598.88272626 2302.68534741 -597 2295 C-595.1237083 2287.34091865 -593.23439419 2279.69858081 -591.03125 2272.125 C-588.61726535 2263.8080685 -586.56519635 2255.40867671 -584.5 2247 C-582.15252215 2237.44198277 -579.73205401 2227.93657578 -576.98242188 2218.484375 C-575.16279394 2212.03066478 -573.59528937 2205.51202106 -572 2199 C-569.82789632 2190.13340491 -567.54519022 2181.32366316 -565 2172.5546875 C-563.17757023 2166.07651918 -561.60107228 2159.53562708 -560 2153 C-558.1237083 2145.34091865 -556.23439419 2137.69858081 -554.03125 2130.125 C-551.61726535 2121.8080685 -549.56519635 2113.40867671 -547.5 2105 C-545.15252215 2095.44198277 -542.73205401 2085.93657578 -539.98242188 2076.484375 C-538.16279394 2070.03066478 -536.59528937 2063.51202106 -535 2057 C-532.82789632 2048.13340491 -530.54519022 2039.32366316 -528 2030.5546875 C-526.17757023 2024.07651918 -524.60107228 2017.53562708 -523 2011 C-521.1237083 2003.34091865 -519.23439419 1995.69858081 -517.03125 1988.125 C-514.61726535 1979.8080685 -512.56519635 1971.40867671 -510.5 1963 C-508.15252215 1953.44198277 -505.73205401 1943.93657578 -502.98242188 1934.484375 C-501.16279394 1928.03066478 -499.59528937 1921.51202106 -498 1915 C-495.82789632 1906.13340491 -493.54519022 1897.32366316 -491 1888.5546875 C-489.17757023 1882.07651918 -487.60107228 1875.53562708 -486 1869 C-484.1237083 1861.34091865 -482.23439419 1853.69858081 -480.03125 1846.125 C-477.61726535 1837.8080685 -475.56519635 1829.40867671 -473.5 1821 C-471.15252215 1811.44198277 -468.73205401 1801.93657578 -465.98242188 1792.484375 C-464.16279394 1786.03066478 -462.59528937 1779.51202106 -461 1773 C-458.82789632 1764.13340491 -456.54519022 1755.32366316 -454 1746.5546875 C-452.17757023 1740.07651918 -450.60107228 1733.53562708 -449 1727 C-447.1237083 1719.34091865 -445.23439419 1711.69858081 -443.03125 1704.125 C-440.61726535 1695.8080685 -438.56519635 1687.40867671 -436.5 1679 C-434.15252215 1669.44198277 -431.73205401 1659.93657578 -428.98242188 1650.484375 C-427.16279394 1644.03066478 -425.59528937 1637.51202106 -424 1631 C-421.82789632 1622.13340491 -419.54519022 1613.32366316 -417 1604.5546875 C-415.17757023 1598.07651918 -413.60107228 1591.53562708 -412 1585 C-410.1237083 1577.34091865 -408.23439419 1569.69858081 -406.03125 1562.125 C-403.61726535 1553.8080685 -401.56519635 1545.40867671 -399.5 1537 C-397.15252215 1527.44198277 -394.73205401 1517.93657578 -391.98242188 1508.484375 C-390.16279394 1502.03066478 -388.59528937 1495.51202106 -387 1489 C-384.82789632 1480.13340491 -382.54519022 1471.32366316 -380 1462.5546875 C-378.17757023 1456.07651918 -376.60107228 1449.53562708 -375 1443 C-373.1237083 1435.34091865 -371.23439419 1427.69858081 -369.03125 1420.125 C-366.61726535 1411.8080685 -364.56519635 1403.40867671 -362.5 1395 C-360.15252215 1385.44198277 -357.73205401 1375.93657578 -354.98242188 1366.484375 C-353.16279394 1360.03066478 -351.59528937 1353.51202106 -350 1347 C-347.82789632 1338.13340491 -345.54519022 1329.32366316 -343 1320.5546875 C-341.17757023 1314.07651918 -339.60107228 1307.53562708 -338 1301 C-336.1237083 1293.34091865 -334.23439419 1285.69858081 -332.03125 1278.125 C-329.61726535 1269.8080685 -327.56519635 1261.40867671 -325.5 1253 C-323.15252215 1243.44198277 -320.73205401 1233.93657578 -317.98242188 1224.484375 C-316.16279394 1218.03066478 -314.59528937 1211.51202106 -313 1205 C-310.82789632 1196.13340491 -308.54519022 1187.32366316 -306 1178.5546875 C-304.17757023 1172.07651918 -302.60107228 1165.53562708 -301 1159 C-299.1237083 1151.34091865 -297.23439419 1143.69858081 -295.03125 1136.125 C-292.61726535 1127.8080685 -290.56519635 1119.40867671 -288.5 1111 C-286.15252215 1101.44198277 -283.73205401 1091.93657578 -280.98242188 1082.484375 C-279.16279394 1076.03066478 -277.59528937 1069.51202106 -276 1063 C-273.82789632 1054.13340491 -271.54519022 1045.32366316 -269 1036.5546875 C-267.17757023 1030.07651918 -265.60107228 1023.53562708 -264 1017 C-262.1237083 1009.34091865 -260.23439419 1001.69858081 -258.03125 994.125 C-255.61726535 985.8080685 -253.56519635 977.40867671 -251.5 969 C-249.15252215 959.44198277 -246.73205401 949.93657578 -243.98242188 940.484375 C-242.16279394 934.03066478 -240.59528937 927.51202106 -239 921 C-236.82789632 912.13340491 -234.54519022 903.32366316 -232 894.5546875 C-230.17757023 888.07651918 -228.60107228 881.53562708 -227 875 C-225.1237083 867.34091865 -223.23439419 859.69858081 -221.03125 852.125 C-218.61726535 843.8080685 -216.56519635 835.40867671 -214.5 827 C-212.15252215 817.44198277 -209.73205401 807.93657578 -206.98242188 798.484375 C-205.16279394 792.03066478 -203.59528937 785.51202106 -202 779 C-199.82789632 770.13340491 -197.54519022 761.32366316 -195 752.5546875 C-193.17757023 746.07651918 -191.60107228 739.53562708 -190 733 C-188.1237083 725.34091865 -186.23439419 717.69858081 -184.03125 710.125 C-181.61726535 701.8080685 -179.56519635 693.40867671 -177.5 685 C-175.15252215 675.44198277 -172.73205401 665.93657578 -169.98242188 656.484375 C-168.16279394 650.03066478 -166.59528937 643.51202106 -165 637 C-162.82646565 628.12756486 -160.54228869 619.31191831 -157.99560547 610.53710938 C-156.38761153 604.82435405 -154.97971861 599.06338716 -153.56591797 593.30029297 C-151.16073353 583.5045903 -148.71657311 573.73017878 -145.93603516 564.03320312 C-143.37537328 554.98057276 -141.18263196 545.82734415 -138.94140625 536.69140625 C-137.40030905 530.43396137 -135.80054309 524.20608672 -134.00390625 518.015625 C-131.79238653 510.39415562 -129.8877927 502.7060288 -128 495 C-125.82646565 486.12756486 -123.54228869 477.31191831 -120.99560547 468.53710938 C-119.38761153 462.82435405 -117.97971861 457.06338716 -116.56591797 451.30029297 C-114.16073353 441.5045903 -111.71657311 431.73017878 -108.93603516 422.03320312 C-106.37537328 412.98057276 -104.18263196 403.82734415 -101.94140625 394.69140625 C-100.40030905 388.43396137 -98.80054309 382.20608672 -97.00390625 376.015625 C-94.79238653 368.39415562 -92.8877927 360.7060288 -91 353 C-88.82646565 344.12756486 -86.54228869 335.31191831 -83.99560547 326.53710938 C-82.38761153 320.82435405 -80.97971861 315.06338716 -79.56591797 309.30029297 C-77.16073353 299.5045903 -74.71657311 289.73017878 -71.93603516 280.03320312 C-69.37537328 270.98057276 -67.18263196 261.82734415 -64.94140625 252.69140625 C-63.40030905 246.43396137 -61.80054309 240.20608672 -60.00390625 234.015625 C-57.79238653 226.39415562 -55.8877927 218.7060288 -54 211 C-51.82646565 202.12756486 -49.54228869 193.31191831 -46.99560547 184.53710938 C-45.38761153 178.82435405 -43.97971861 173.06338716 -42.56591797 167.30029297 C-40.16073353 157.5045903 -37.71657311 147.73017878 -34.93603516 138.03320312 C-32.37537328 128.98057276 -30.18263196 119.82734415 -27.94140625 110.69140625 C-26.40030905 104.43396137 -24.80054309 98.20608672 -23.00390625 92.015625 C-20.79238653 84.39415562 -18.8877927 76.7060288 -17 69 C-14.83059786 60.14443269 -12.55409471 51.34382696 -10.01318359 42.58544922 C-8.33305138 36.63980545 -6.82913482 30.6512127 -5.33520508 24.65649414 C-4.80657513 22.53876455 -4.27160497 20.42269872 -3.73632812 18.30664062 C-3.3928484 16.93499113 -3.04973583 15.56324962 -2.70703125 14.19140625 C-2.4025708 12.97654541 -2.09811035 11.76168457 -1.78442383 10.51000977 C-1.00375909 7.01682057 -0.45753956 3.54870067 0 0 Z " fill="#067EAD" transform="translate(1149,21)"/>
<path d="M0 0 C17.66128032 14.96356048 33.75785439 31.65948723 50.0625 48.0625 C54.05295778 52.07678894 58.0451987 56.0892751 62.04165459 60.09759331 C63.61452109 61.67683609 65.1843001 63.2591009 66.75392151 64.84156799 C70.72130614 68.82913125 74.67497891 72.79549733 78.95288086 76.45288086 C84.03830448 80.80866501 88.70351089 85.59236183 93.41670227 90.34153748 C95.13094586 92.06872676 96.84845302 93.7926132 98.56677246 95.51574707 C102.83086477 99.79309807 107.08945061 104.07591759 111.34820557 108.35858154 C114.95875702 111.98897448 118.57142642 115.61723537 122.18684387 119.24278259 C123.86603635 120.9283829 125.54215076 122.61700141 127.21813965 124.30578613 C133.43902141 130.5688008 133.43902141 130.5688008 139.98632812 136.48632812 C145.12936125 140.88353376 149.83859481 145.72777694 154.60189819 150.5267334 C156.34974922 152.287525 158.10085972 154.04501864 159.8527832 155.80175781 C164.2003495 160.1625859 168.54241148 164.52888113 172.88464355 168.89501953 C176.5656568 172.59587072 180.24878557 176.29459256 183.93466187 179.99060059 C185.6470917 181.70944044 187.35644512 183.43129812 189.06567383 185.15332031 C195.36759424 191.50157573 195.36759424 191.50157573 202 197.5 C207.13924997 201.89161415 211.84319075 206.73240728 216.60189819 211.5267334 C218.34974922 213.287525 220.10085972 215.04501864 221.8527832 216.80175781 C226.2003495 221.1625859 230.54241148 225.52888113 234.88464355 229.89501953 C238.5656568 233.59587072 242.24878557 237.29459256 245.93466187 240.99060059 C247.6470917 242.70944044 249.35644512 244.43129812 251.06567383 246.15332031 C255.87549165 250.98552044 260.71861096 255.69802403 265.90478516 260.12963867 C270.25291568 264.01113808 274.31216984 268.20566777 278.41670227 272.34153748 C280.13094586 274.06872676 281.84845302 275.7926132 283.56677246 277.51574707 C287.83086477 281.79309807 292.08945061 286.07591759 296.34820557 290.35858154 C299.95875702 293.98897448 303.57142642 297.61723537 307.18684387 301.24278259 C308.86603635 302.9283829 310.54215076 304.61700141 312.21813965 306.30578613 C318.43902141 312.5688008 318.43902141 312.5688008 324.98632812 318.48632812 C330.12936125 322.88353376 334.83859481 327.72777694 339.60189819 332.5267334 C341.34974922 334.287525 343.10085972 336.04501864 344.8527832 337.80175781 C349.2003495 342.1625859 353.54241148 346.52888113 357.88464355 350.89501953 C361.5656568 354.59587072 365.24878557 358.29459256 368.93466187 361.99060059 C370.6470917 363.70944044 372.35644512 365.43129812 374.06567383 367.15332031 C378.87549165 371.98552044 383.71861096 376.69802403 388.90478516 381.12963867 C393.25291568 385.01113808 397.31216984 389.20566777 401.41670227 393.34153748 C403.13094586 395.06872676 404.84845302 396.7926132 406.56677246 398.51574707 C410.83086477 402.79309807 415.08945061 407.07591759 419.34820557 411.35858154 C422.95875702 414.98897448 426.57142642 418.61723537 430.18684387 422.24278259 C431.86603635 423.9283829 433.54215076 425.61700141 435.21813965 427.30578613 C441.43902141 433.5688008 441.43902141 433.5688008 447.98632812 439.48632812 C453.12936125 443.88353376 457.83859481 448.72777694 462.60189819 453.5267334 C464.34974922 455.287525 466.10085972 457.04501864 467.8527832 458.80175781 C472.2003495 463.1625859 476.54241148 467.52888113 480.88464355 471.89501953 C484.5656568 475.59587072 488.24878557 479.29459256 491.93466187 482.99060059 C493.6470917 484.70944044 495.35644512 486.43129812 497.06567383 488.15332031 C503.36759424 494.50157573 503.36759424 494.50157573 510 500.5 C515.13924997 504.89161415 519.84319075 509.73240728 524.60189819 514.5267334 C526.34974922 516.287525 528.10085972 518.04501864 529.8527832 519.80175781 C534.2003495 524.1625859 538.54241148 528.52888113 542.88464355 532.89501953 C546.5656568 536.59587072 550.24878557 540.29459256 553.93466187 543.99060059 C555.6470917 545.70944044 557.35644512 547.43129812 559.06567383 549.15332031 C563.87549165 553.98552044 568.71861096 558.69802403 573.90478516 563.12963867 C578.25291568 567.01113808 582.31216984 571.20566777 586.41670227 575.34153748 C588.13094586 577.06872676 589.84845302 578.7926132 591.56677246 580.51574707 C595.83086477 584.79309807 600.08945061 589.07591759 604.34820557 593.35858154 C607.95875702 596.98897448 611.57142642 600.61723537 615.18684387 604.24278259 C616.86603635 605.9283829 618.54215076 607.61700141 620.21813965 609.30578613 C626.43902141 615.5688008 626.43902141 615.5688008 632.98632812 621.48632812 C638.12936125 625.88353376 642.83859481 630.72777694 647.60189819 635.5267334 C649.34974922 637.287525 651.10085972 639.04501864 652.8527832 640.80175781 C657.2003495 645.1625859 661.54241148 649.52888113 665.88464355 653.89501953 C669.5656568 657.59587072 673.24878557 661.29459256 676.93466187 664.99060059 C678.6470917 666.70944044 680.35644512 668.43129812 682.06567383 670.15332031 C688.36759424 676.50157573 688.36759424 676.50157573 695 682.5 C700.13924997 686.89161415 704.84319075 691.73240728 709.60189819 696.5267334 C711.34974922 698.287525 713.10085972 700.04501864 714.8527832 701.80175781 C719.2003495 706.1625859 723.54241148 710.52888113 727.88464355 714.89501953 C731.5656568 718.59587072 735.24878557 722.29459256 738.93466187 725.99060059 C740.6470917 727.70944044 742.35644512 729.43129812 744.06567383 731.15332031 C748.87549165 735.98552044 753.71861096 740.69802403 758.90478516 745.12963867 C763.25291568 749.01113808 767.31216984 753.20566777 771.41670227 757.34153748 C773.13094586 759.06872676 774.84845302 760.7926132 776.56677246 762.51574707 C780.83086477 766.79309807 785.08945061 771.07591759 789.34820557 775.35858154 C792.95875702 778.98897448 796.57142642 782.61723537 800.18684387 786.24278259 C801.86603635 787.9283829 803.54215076 789.61700141 805.21813965 791.30578613 C811.43902141 797.5688008 811.43902141 797.5688008 817.98632812 803.48632812 C823.12936125 807.88353376 827.83859481 812.72777694 832.60189819 817.5267334 C834.34974922 819.287525 836.10085972 821.04501864 837.8527832 822.80175781 C842.2003495 827.1625859 846.54241148 831.52888113 850.88464355 835.89501953 C854.5656568 839.59587072 858.24878557 843.29459256 861.93466187 846.99060059 C863.6470917 848.70944044 865.35644512 850.43129812 867.06567383 852.15332031 C871.87549165 856.98552044 876.71861096 861.69802403 881.90478516 866.12963867 C886.25291568 870.01113808 890.31216984 874.20566777 894.41670227 878.34153748 C896.13094586 880.06872676 897.84845302 881.7926132 899.56677246 883.51574707 C903.83086477 887.79309807 908.08945061 892.07591759 912.34820557 896.35858154 C915.95875702 899.98897448 919.57142642 903.61723537 923.18684387 907.24278259 C924.86603635 908.9283829 926.54215076 910.61700141 928.21813965 912.30578613 C934.43902141 918.5688008 934.43902141 918.5688008 940.98632812 924.48632812 C946.12936125 928.88353376 950.83859481 933.72777694 955.60189819 938.5267334 C957.34974922 940.287525 959.10085972 942.04501864 960.8527832 943.80175781 C965.2003495 948.1625859 969.54241148 952.52888113 973.88464355 956.89501953 C977.5656568 960.59587072 981.24878557 964.29459256 984.93466187 967.99060059 C986.6470917 969.70944044 988.35644512 971.43129812 990.06567383 973.15332031 C996.36759424 979.50157573 996.36759424 979.50157573 1003 985.5 C1008.13924997 989.89161415 1012.84319075 994.73240728 1017.60189819 999.5267334 C1019.34974922 1001.287525 1021.10085972 1003.04501864 1022.8527832 1004.80175781 C1027.2003495 1009.1625859 1031.54241148 1013.52888113 1035.88464355 1017.89501953 C1039.5656568 1021.59587072 1043.24878557 1025.29459256 1046.93466187 1028.99060059 C1048.6470917 1030.70944044 1050.35644512 1032.43129812 1052.06567383 1034.15332031 C1056.87549165 1038.98552044 1061.71861096 1043.69802403 1066.90478516 1048.12963867 C1071.25291568 1052.01113808 1075.31216984 1056.20566777 1079.41670227 1060.34153748 C1081.13094586 1062.06872676 1082.84845302 1063.7926132 1084.56677246 1065.51574707 C1088.83086477 1069.79309807 1093.08945061 1074.07591759 1097.34820557 1078.35858154 C1100.95875702 1081.98897448 1104.57142642 1085.61723537 1108.18684387 1089.24278259 C1109.86603635 1090.9283829 1111.54215076 1092.61700141 1113.21813965 1094.30578613 C1119.43902141 1100.5688008 1119.43902141 1100.5688008 1125.98632812 1106.48632812 C1131.12936125 1110.88353376 1135.83859481 1115.72777694 1140.60189819 1120.5267334 C1142.34974922 1122.287525 1144.10085972 1124.04501864 1145.8527832 1125.80175781 C1150.2003495 1130.1625859 1154.54241148 1134.52888113 1158.88464355 1138.89501953 C1162.5656568 1142.59587072 1166.24878557 1146.29459256 1169.93466187 1149.99060059 C1171.6470917 1151.70944044 1173.35644512 1153.43129812 1175.06567383 1155.15332031 C1181.36759424 1161.50157573 1181.36759424 1161.50157573 1188 1167.5 C1193.13924997 1171.89161415 1197.84319075 1176.73240728 1202.60189819 1181.5267334 C1204.34974922 1183.287525 1206.10085972 1185.04501864 1207.8527832 1186.80175781 C1212.2003495 1191.1625859 1216.54241148 1195.52888113 1220.88464355 1199.89501953 C1224.5656568 1203.59587072 1228.24878557 1207.29459256 1231.93466187 1210.99060059 C1233.6470917 1212.70944044 1235.35644512 1214.43129812 1237.06567383 1216.15332031 C1241.87549165 1220.98552044 1246.71861096 1225.69802403 1251.90478516 1230.12963867 C1256.25291568 1234.01113808 1260.31216984 1238.20566777 1264.41670227 1242.34153748 C1266.13094586 1244.06872676 1267.84845302 1245.7926132 1269.56677246 1247.51574707 C1273.83086477 1251.79309807 1278.08945061 1256.07591759 1282.34820557 1260.35858154 C1285.95875702 1263.98897448 1289.57142642 1267.61723537 1293.18684387 1271.24278259 C1294.86603635 1272.9283829 1296.54215076 1274.61700141 1298.21813965 1276.30578613 C1304.43902141 1282.5688008 1304.43902141 1282.5688008 1310.98632812 1288.48632812 C1316.12936125 1292.88353376 1320.83859481 1297.72777694 1325.60189819 1302.5267334 C1327.34974922 1304.287525 1329.10085972 1306.04501864 1330.8527832 1307.80175781 C1335.2003495 1312.1625859 1339.54241148 1316.52888113 1343.88464355 1320.89501953 C1347.5656568 1324.59587072 1351.24878557 1328.29459256 1354.93466187 1331.99060059 C1356.6470917 1333.70944044 1358.35644512 1335.43129812 1360.06567383 1337.15332031 C1364.87549165 1341.98552044 1369.71861096 1346.69802403 1374.90478516 1351.12963867 C1379.25291568 1355.01113808 1383.31216984 1359.20566777 1387.41670227 1363.34153748 C1389.13094586 1365.06872676 1390.84845302 1366.7926132 1392.56677246 1368.51574707 C1396.83086477 1372.79309807 1401.08945061 1377.07591759 1405.34820557 1381.35858154 C1408.95875702 1384.98897448 1412.57142642 1388.61723537 1416.18684387 1392.24278259 C1417.86603635 1393.9283829 1419.54215076 1395.61700141 1421.21813965 1397.30578613 C1427.43902141 1403.5688008 1427.43902141 1403.5688008 1433.98632812 1409.48632812 C1439.12936125 1413.88353376 1443.83859481 1418.72777694 1448.60189819 1423.5267334 C1450.34974922 1425.287525 1452.10085972 1427.04501864 1453.8527832 1428.80175781 C1458.2003495 1433.1625859 1462.54241148 1437.52888113 1466.88464355 1441.89501953 C1470.5656568 1445.59587072 1474.24878557 1449.29459256 1477.93466187 1452.99060059 C1479.6470917 1454.70944044 1481.35644512 1456.43129812 1483.06567383 1458.15332031 C1489.36759424 1464.50157573 1489.36759424 1464.50157573 1496 1470.5 C1501.13924997 1474.89161415 1505.84319075 1479.73240728 1510.60189819 1484.5267334 C1512.34974922 1486.287525 1514.10085972 1488.04501864 1515.8527832 1489.80175781 C1520.2003495 1494.1625859 1524.54241148 1498.52888113 1528.88464355 1502.89501953 C1532.5656568 1506.59587072 1536.24878557 1510.29459256 1539.93466187 1513.99060059 C1541.6470917 1515.70944044 1543.35644512 1517.43129812 1545.06567383 1519.15332031 C1549.87549165 1523.98552044 1554.71861096 1528.69802403 1559.90478516 1533.12963867 C1564.25291568 1537.01113808 1568.31216984 1541.20566777 1572.41670227 1545.34153748 C1574.13094586 1547.06872676 1575.84845302 1548.7926132 1577.56677246 1550.51574707 C1581.83086477 1554.79309807 1586.08945061 1559.07591759 1590.34820557 1563.35858154 C1593.95875702 1566.98897448 1597.57142642 1570.61723537 1601.18684387 1574.24278259 C1602.86603635 1575.9283829 1604.54215076 1577.61700141 1606.21813965 1579.30578613 C1610.98231958 1584.09262109 1615.78334574 1588.75780702 1620.91955566 1593.14886475 C1625.71502604 1597.4157726 1630.18604542 1602.04344651 1634.71875 1606.5859375 C1635.82818273 1607.69469539 1636.93776376 1608.8033049 1638.04748535 1609.91177368 C1640.35522284 1612.21804697 1642.66116683 1614.52609422 1644.96582031 1616.83544922 C1647.92606269 1619.80143526 1650.8908357 1622.76284583 1653.85692596 1625.72298241 C1656.14057648 1628.00303256 1658.42185638 1630.28544255 1660.70240784 1632.56859207 C1661.79576649 1633.66261903 1662.88987185 1634.75590026 1663.98472595 1635.84843063 C1665.50461209 1637.36579387 1667.02128452 1638.88629595 1668.53710938 1640.40771484 C1669.83328186 1641.70508072 1669.83328186 1641.70508072 1671.15563965 1643.02865601 C1673 1645 1673 1645 1673 1646 C1608.21268809 1647.56806661 1543.42472471 1649.10082949 1478.63427734 1650.53393555 C1477.91317606 1650.54988758 1477.19207477 1650.56583962 1476.44912193 1650.58227505 C1457.61654119 1650.99882813 1438.78391222 1651.41317996 1419.95126417 1651.8266768 C1408.79188824 1652.07170588 1397.6325228 1652.31720799 1386.4731636 1652.56299782 C1384.83710089 1652.59903138 1383.20103817 1652.63506494 1381.56497545 1652.6710985 C1379.09693384 1652.72545678 1376.62889225 1652.77981559 1374.16085069 1652.83417567 C1343.80292629 1653.50281687 1313.44497307 1654.17014102 1283.08700583 1654.83683363 C1256.22008633 1655.42686844 1229.35319614 1656.0182217 1202.48632812 1656.6105957 C1171.99193328 1657.2829477 1141.49751964 1657.95443809 1111.0030762 1658.62458259 C1107.75933047 1658.69586953 1104.51558479 1658.76715888 1101.27183914 1658.83844948 C1100.47366533 1658.85599093 1099.67549152 1658.87353239 1098.85313062 1658.8916054 C1086.85818424 1659.15523418 1074.86325253 1659.4195235 1062.86832809 1659.68414879 C1049.30457703 1659.9833822 1035.74080587 1660.28168513 1022.17700706 1660.57874688 C1015.27252111 1660.72998681 1008.36804485 1660.8816394 1001.46359444 1661.0344944 C995.14697393 1661.17429257 988.83032788 1661.31287123 982.51365931 1661.45048044 C980.23188724 1661.50040183 977.95012481 1661.55076672 975.66837339 1661.60162362 C970.7241539 1661.71171694 965.78011715 1661.81667668 960.83539462 1661.9014467 C957.90050939 1661.95281638 954.98183926 1662.04638055 952.04845738 1662.18000567 C950.97389248 1662.21907011 949.89932757 1662.25813455 948.79220009 1662.29838276 C947.92928372 1662.34400736 947.06636735 1662.38963196 946.177302 1662.43663913 C943.05870131 1661.81123067 942.10348582 1660.23189227 940.29296875 1657.69921875 C939.21141224 1655.71997035 938.17907493 1653.71332523 937.1875 1651.6875 C936.61257813 1650.61242188 936.03765625 1649.53734375 935.4453125 1648.4296875 C934.2220021 1646.1389529 933.01720275 1643.83825201 931.82958984 1641.52880859 C928.84929132 1635.7805787 925.66125046 1630.15002491 922.5 1624.5 C921.23940937 1622.21884612 919.97899216 1619.93759641 918.71875 1617.65625 C915.23436773 1611.38436192 911.63798329 1605.18375037 908 1599 C902.37603639 1589.44053137 896.96344799 1579.77705316 891.60546875 1570.06640625 C887.50253068 1562.65053683 883.29744789 1555.30469133 879 1548 C873.37603639 1538.44053137 867.96344799 1528.77705316 862.60546875 1519.06640625 C858.50253068 1511.65053683 854.29744789 1504.30469133 850 1497 C844.37603639 1487.44053137 838.96344799 1477.77705316 833.60546875 1468.06640625 C829.50253068 1460.65053683 825.29744789 1453.30469133 821 1446 C815.37603639 1436.44053137 809.96344799 1426.77705316 804.60546875 1417.06640625 C800.50253068 1409.65053683 796.29744789 1402.30469133 792 1395 C786.37603639 1385.44053137 780.96344799 1375.77705316 775.60546875 1366.06640625 C771.50252885 1358.6505335 767.29734299 1351.30475533 763 1344 C757.3343635 1334.36681523 751.86953085 1324.63370614 746.46264648 1314.85327148 C741.27240299 1305.46932742 735.97847903 1296.14937609 730.63671875 1286.85107422 C727.43835474 1281.27969968 724.25055133 1275.70227967 721.0625 1270.125 C720.72066681 1269.52712677 720.37883362 1268.92925354 720.02664185 1268.31326294 C714.96767585 1259.46376713 709.93857646 1250.59779936 704.93164062 1241.71875 C700.33391266 1233.5725915 695.68792405 1225.45430961 691.03863525 1217.33752441 C686.26642711 1209.00318036 681.54940142 1200.63968101 676.875 1192.25 C672.36235263 1184.15272992 667.75861161 1176.11720563 663.0625 1168.125 C657.42038573 1158.52281393 651.98597531 1148.81779673 646.60571289 1139.06689453 C642.50272978 1131.65084148 638.29754021 1124.30484825 634 1117 C628.37603639 1107.44053137 622.96344799 1097.77705316 617.60546875 1088.06640625 C613.50253068 1080.65053683 609.29744789 1073.30469133 605 1066 C599.37603639 1056.44053137 593.96344799 1046.77705316 588.60546875 1037.06640625 C584.50253068 1029.65053683 580.29744789 1022.30469133 576 1015 C570.37603639 1005.44053137 564.96344799 995.77705316 559.60546875 986.06640625 C555.50253068 978.65053683 551.29744789 971.30469133 547 964 C541.37603639 954.44053137 535.96344799 944.77705316 530.60546875 935.06640625 C526.50253068 927.65053683 522.29744789 920.30469133 518 913 C512.37603639 903.44053137 506.96344799 893.77705316 501.60546875 884.06640625 C497.50252885 876.6505335 493.29734299 869.30475533 489 862 C483.3343635 852.36681523 477.86953085 842.63370614 472.46264648 832.85327148 C467.27240299 823.46932742 461.97847903 814.14937609 456.63671875 804.85107422 C453.43835474 799.27969968 450.25055133 793.70227967 447.0625 788.125 C446.72066681 787.52712677 446.37883362 786.92925354 446.02664185 786.31326294 C440.96767585 777.46376713 435.93857646 768.59779936 430.93164062 759.71875 C426.33391266 751.5725915 421.68792405 743.45430961 417.03863525 735.33752441 C412.26642711 727.00318036 407.54940142 718.63968101 402.875 710.25 C398.36235263 702.15272992 393.75861161 694.11720563 389.0625 686.125 C383.42038573 676.52281393 377.98597531 666.81779673 372.60571289 657.06689453 C368.50272978 649.65084148 364.29754021 642.30484825 360 635 C354.37603639 625.44053137 348.96344799 615.77705316 343.60546875 606.06640625 C339.50253068 598.65053683 335.29744789 591.30469133 331 584 C325.37603639 574.44053137 319.96344799 564.77705316 314.60546875 555.06640625 C310.50253068 547.65053683 306.29744789 540.30469133 302 533 C296.37603639 523.44053137 290.96344799 513.77705316 285.60546875 504.06640625 C281.50253068 496.65053683 277.29744789 489.30469133 273 482 C267.37603639 472.44053137 261.96344799 462.77705316 256.60546875 453.06640625 C252.50253068 445.65053683 248.29744789 438.30469133 244 431 C238.37603639 421.44053137 232.96344799 411.77705316 227.60546875 402.06640625 C223.50252885 394.6505335 219.29734299 387.30475533 215 380 C209.3343635 370.36681523 203.86953085 360.63370614 198.46264648 350.85327148 C193.27240299 341.46932742 187.97847903 332.14937609 182.63671875 322.85107422 C179.43835474 317.27969968 176.25055133 311.70227967 173.0625 306.125 C172.72066681 305.52712677 172.37883362 304.92925354 172.02664185 304.31326294 C166.96848691 295.46518591 161.94065135 286.60038479 156.93383789 277.72314453 C152.64950003 270.13329496 148.32875654 262.56455845 144 255 C138.61467167 245.58906859 133.25723492 236.16302486 127.93139648 226.71826172 C123.33368897 218.5723004 118.68783379 210.45415203 114.03863525 202.33752441 C109.26642711 194.00318036 104.54940142 185.63968101 99.875 177.25 C95.36235263 169.15272992 90.75861161 161.11720563 86.0625 153.125 C80.42038573 143.52281393 74.98597531 133.81779673 69.60571289 124.06689453 C65.50272978 116.65084148 61.29754021 109.30484825 57 102 C51.37603639 92.44053137 45.96344799 82.77705316 40.60546875 73.06640625 C35.95721183 64.6648984 31.15669318 56.36403877 26.28710938 48.08935547 C21.09036616 39.22752524 16.09814312 30.25917589 11.1484375 21.2578125 C7.91860896 15.39574483 4.6106971 9.61746478 1.06640625 3.93896484 C0 2 0 2 0 0 Z " fill="#7ACDD5" transform="translate(1448,3)"/>
<path d="M0 0 C0 0.66 0 1.32 0 2 C-8.38831877 4.93025086 -16.82018973 7.34444209 -25.4375 9.5 C-33.28047734 11.46860979 -41.02212765 13.59549062 -48.73852539 16.01367188 C-55.39421142 18.02647011 -62.15344577 19.65662212 -68.89453125 21.35546875 C-75.58623163 23.0611963 -82.17758655 24.95870994 -88.76708984 27.02246094 C-94.15326718 28.65108607 -99.60661715 30.00225264 -105.0625 31.375 C-113.01332566 33.4028621 -120.91335409 35.50472023 -128.75 37.9375 C-138.66432759 41.00863298 -148.70502879 43.5661425 -158.76464844 46.10913086 C-166.07996784 47.96434939 -173.34802821 49.92972911 -180.59765625 52.02685547 C-187.13881213 53.89776874 -193.72150135 55.61686336 -200.29882812 57.35546875 C-205.73257668 58.8049056 -211.12497388 60.327508 -216.4921875 62.0078125 C-222.96286977 64.02477459 -229.49105409 65.72156732 -236.0625 67.375 C-244.01332566 69.4028621 -251.91335409 71.50472023 -259.75 73.9375 C-269.66432759 77.00863298 -279.70502879 79.5661425 -289.76464844 82.10913086 C-297.07996784 83.96434939 -304.34802821 85.92972911 -311.59765625 88.02685547 C-318.13881213 89.89776874 -324.72150135 91.61686336 -331.29882812 93.35546875 C-336.73257668 94.8049056 -342.12497388 96.327508 -347.4921875 98.0078125 C-353.96286977 100.02477459 -360.49105409 101.72156732 -367.0625 103.375 C-375.0133102 105.40285816 -382.91343432 107.50448683 -390.75 109.9375 C-400.69057243 113.0196855 -410.76158351 115.57462354 -420.85253906 118.10913086 C-427.91345567 119.89522882 -434.87407879 121.85283917 -441.82202148 124.03564453 C-447.18850377 125.66410001 -452.62496844 127.00696242 -458.0625 128.375 C-467.06446437 130.66987307 -475.97776994 133.13166711 -484.85375977 135.87060547 C-490.52855306 137.60448965 -496.23391281 139.10180492 -502 140.5 C-508.50718557 142.07805225 -514.9166769 143.83147535 -521.3125 145.8125 C-531.40055945 148.93184093 -541.61263705 151.53711516 -551.85083008 154.10864258 C-558.9122957 155.89498341 -565.87351225 157.85266118 -572.82202148 160.03564453 C-578.18850904 161.66410162 -583.62498689 163.00687463 -589.0625 164.375 C-597.01332566 166.4028621 -604.91335409 168.50472023 -612.75 170.9375 C-622.66432759 174.00863298 -632.70502879 176.5661425 -642.76464844 179.10913086 C-650.07996784 180.96434939 -657.34802821 182.92972911 -664.59765625 185.02685547 C-671.13881213 186.89776874 -677.72150135 188.61686336 -684.29882812 190.35546875 C-689.61022613 191.77226894 -694.88152765 193.25473653 -700.125 194.90625 C-708.65080545 197.56364391 -717.29496783 199.75993971 -725.9375 202 C-735.9015975 204.58817897 -745.8462222 207.20440223 -755.73608398 210.06640625 C-762.23099286 211.92417658 -768.76798449 213.6291504 -775.29882812 215.35546875 C-780.72342711 216.80246498 -786.10682561 218.32203264 -791.46484375 220 C-799.20189305 222.41190995 -807.03820576 224.37556624 -814.89453125 226.35546875 C-821.58623163 228.0611963 -828.17758655 229.95870994 -834.76708984 232.02246094 C-840.15326718 233.65108607 -845.60661715 235.00225264 -851.0625 236.375 C-859.0133102 238.40285816 -866.91343432 240.50448683 -874.75 242.9375 C-884.69057243 246.0196855 -894.76158351 248.57462354 -904.85253906 251.10913086 C-911.91345567 252.89522882 -918.87407879 254.85283917 -925.82202148 257.03564453 C-931.18850904 258.66410162 -936.62498689 260.00687463 -942.0625 261.375 C-950.0133102 263.40285816 -957.91343432 265.50448683 -965.75 267.9375 C-975.69057243 271.0196855 -985.76158351 273.57462354 -995.85253906 276.10913086 C-1002.90316357 277.89262538 -1009.85352848 279.84704692 -1016.79125977 282.02685547 C-1023.42782402 284.03958811 -1030.17125733 285.66111088 -1036.89453125 287.35546875 C-1042.36180055 288.74908641 -1047.77819367 290.2108488 -1053.16015625 291.90625 C-1061.67210204 294.57193102 -1070.30548781 296.76266638 -1078.9375 299 C-1088.9015975 301.58817897 -1098.8462222 304.20440223 -1108.73608398 307.06640625 C-1115.23099286 308.92417658 -1121.76798449 310.6291504 -1128.29882812 312.35546875 C-1133.73257668 313.8049056 -1139.12497388 315.327508 -1144.4921875 317.0078125 C-1150.96286977 319.02477459 -1157.49105409 320.72156732 -1164.0625 322.375 C-1172.0133102 324.40285816 -1179.91343432 326.50448683 -1187.75 328.9375 C-1197.69057243 332.0196855 -1207.76158351 334.57462354 -1217.85253906 337.10913086 C-1224.91345567 338.89522882 -1231.87407879 340.85283917 -1238.82202148 343.03564453 C-1244.18850904 344.66410162 -1249.62498689 346.00687463 -1255.0625 347.375 C-1263.0133102 349.40285816 -1270.91343432 351.50448683 -1278.75 353.9375 C-1288.69057243 357.0196855 -1298.76158351 359.57462354 -1308.85253906 362.10913086 C-1315.90316357 363.89262538 -1322.85352848 365.84704692 -1329.79125977 368.02685547 C-1336.42782402 370.03958811 -1343.17125733 371.66111088 -1349.89453125 373.35546875 C-1356.58623163 375.0611963 -1363.17758655 376.95870994 -1369.76708984 379.02246094 C-1375.15326718 380.65108607 -1380.60661715 382.00225264 -1386.0625 383.375 C-1394.0133102 385.40285816 -1401.91343432 387.50448683 -1409.75 389.9375 C-1419.69057243 393.0196855 -1429.76158351 395.57462354 -1439.85253906 398.10913086 C-1446.91345567 399.89522882 -1453.87407879 401.85283917 -1460.82202148 404.03564453 C-1466.18850904 405.66410162 -1471.62498689 407.00687463 -1477.0625 408.375 C-1485.0133102 410.40285816 -1492.91343432 412.50448683 -1500.75 414.9375 C-1510.69057243 418.0196855 -1520.76158351 420.57462354 -1530.85253906 423.10913086 C-1537.91345567 424.89522882 -1544.87407879 426.85283917 -1551.82202148 429.03564453 C-1557.18850904 430.66410162 -1562.62498689 432.00687463 -1568.0625 433.375 C-1576.0133102 435.40285816 -1583.91343432 437.50448683 -1591.75 439.9375 C-1601.69057243 443.0196855 -1611.76158351 445.57462354 -1621.85253906 448.10913086 C-1628.90316357 449.89262538 -1635.85352848 451.84704692 -1642.79125977 454.02685547 C-1649.42782402 456.03958811 -1656.17125733 457.66111088 -1662.89453125 459.35546875 C-1668.36067902 460.74880054 -1673.77566007 462.21034254 -1679.15625 463.90625 C-1688.50752354 466.83522463 -1698.01306569 469.19454121 -1707.49804688 471.64550781 C-1716.37267934 473.94259454 -1725.18413283 476.30989598 -1733.9296875 479.06640625 C-1740.51833978 481.06982596 -1747.21838496 482.67298769 -1753.89453125 484.35546875 C-1760.58623163 486.0611963 -1767.17758655 487.95870994 -1773.76708984 490.02246094 C-1779.15326718 491.65108607 -1784.60661715 493.00225264 -1790.0625 494.375 C-1798.0133102 496.40285816 -1805.91343432 498.50448683 -1813.75 500.9375 C-1823.69057243 504.0196855 -1833.76158351 506.57462354 -1843.85253906 509.10913086 C-1850.91345567 510.89522882 -1857.87407879 512.85283917 -1864.82202148 515.03564453 C-1870.18850904 516.66410162 -1875.62498689 518.00687463 -1881.0625 519.375 C-1889.0133102 521.40285816 -1896.91343432 523.50448683 -1904.75 525.9375 C-1914.69057243 529.0196855 -1924.76158351 531.57462354 -1934.85253906 534.10913086 C-1941.90316357 535.89262538 -1948.85352848 537.84704692 -1955.79125977 540.02685547 C-1962.42782402 542.03958811 -1969.17125733 543.66111088 -1975.89453125 545.35546875 C-1981.36180055 546.74908641 -1986.77819367 548.2108488 -1992.16015625 549.90625 C-2000.67210204 552.57193102 -2009.30548781 554.76266638 -2017.9375 557 C-2027.9015975 559.58817897 -2037.8462222 562.20440223 -2047.73608398 565.06640625 C-2054.23099286 566.92417658 -2060.76798449 568.6291504 -2067.29882812 570.35546875 C-2072.73257668 571.8049056 -2078.12497388 573.327508 -2083.4921875 575.0078125 C-2089.96286977 577.02477459 -2096.49105409 578.72156732 -2103.0625 580.375 C-2111.0133102 582.40285816 -2118.91343432 584.50448683 -2126.75 586.9375 C-2136.69057243 590.0196855 -2146.76158351 592.57462354 -2156.85253906 595.10913086 C-2163.91345567 596.89522882 -2170.87407879 598.85283917 -2177.82202148 601.03564453 C-2183.18850916 602.66410165 -2188.62498729 604.00687217 -2194.0625 605.375 C-2202.09599353 607.42404652 -2210.07896051 609.55107862 -2218 612 C-2226.13248854 614.5080868 -2234.326909 616.73036007 -2242.5625 618.875 C-2244.34043945 619.34099609 -2244.34043945 619.34099609 -2246.15429688 619.81640625 C-2247.81235352 620.24373047 -2247.81235352 620.24373047 -2249.50390625 620.6796875 C-2250.49205322 620.93476074 -2251.4802002 621.18983398 -2252.49829102 621.45263672 C-2255 622 -2255 622 -2258 622 C-2256.34587201 617.46874514 -2254.10294229 613.38138882 -2251.75 609.1875 C-2251.31381348 608.40616699 -2250.87762695 607.62483398 -2250.42822266 606.81982422 C-2246.24004651 599.35622355 -2241.9209478 591.970182 -2237.59448242 584.58618164 C-2233.03318601 576.79445001 -2228.53372543 568.96864309 -2224.0625 561.125 C-2218.28808543 550.99674706 -2212.48108878 540.88796546 -2206.64697266 530.79394531 C-2202.3926282 523.42778163 -2198.16650945 516.04587811 -2193.953125 508.65625 C-2188.68135856 499.4103827 -2183.3770493 490.18518608 -2178 481 C-2172.99254896 472.44450589 -2168.03845141 463.85975755 -2163.125 455.25 C-2162.79211975 454.6667395 -2162.4592395 454.083479 -2162.11627197 453.48254395 C-2159.74261615 449.32258771 -2157.371073 445.16142877 -2155 441 C-2152.29310624 436.24917808 -2149.58529654 431.49888166 -2146.875 426.75 C-2146.37543793 425.87462585 -2146.37543793 425.87462585 -2145.86578369 424.98156738 C-2140.72647333 415.98021232 -2135.52288709 407.0178681 -2130.28637695 398.07275391 C-2125.48564601 389.86056671 -2120.75850731 381.60722821 -2116.046875 373.34375 C-2111.22207465 364.88179246 -2106.37431361 356.43357068 -2101.5 348 C-2096.307595 339.01459064 -2091.14333816 330.01354666 -2086 321 C-2077.76426888 306.56860638 -2069.45951043 292.17743616 -2061.14550781 277.79101562 C-2059.28397328 274.56931725 -2057.42301161 271.34728921 -2055.5625 268.125 C-2054.94697266 267.05894531 -2054.33144531 265.99289062 -2053.69726562 264.89453125 C-2048.74546958 256.31004403 -2043.83175132 247.70419707 -2038.92263794 239.09527588 C-2033.76583392 230.05528292 -2028.54456231 221.05474679 -2023.28662109 212.07324219 C-2018.48588404 203.86084825 -2013.75859742 195.60738625 -2009.046875 187.34375 C-2004.22207465 178.88179246 -1999.37431361 170.43357068 -1994.5 162 C-1989.307595 153.01459064 -1984.14333816 144.01354666 -1979 135 C-1970.76426888 120.56860638 -1962.45951043 106.17743616 -1954.14550781 91.79101562 C-1952.28397328 88.56931725 -1950.42301161 85.34728921 -1948.5625 82.125 C-1947.94697266 81.05894531 -1947.33144531 79.99289062 -1946.69726562 78.89453125 C-1941.75013351 70.31812948 -1936.84005803 61.7209291 -1931.93673706 53.1194458 C-1926.46785276 43.52882351 -1920.93127655 33.97998675 -1915.33959961 24.46044922 C-1914.52567749 23.07237061 -1914.52567749 23.07237061 -1913.6953125 21.65625 C-1913.22109863 20.84994141 -1912.74688477 20.04363281 -1912.25830078 19.21289062 C-1911.09751292 17.17148955 -1910.04127728 15.10400713 -1909 13 C-1824.79098749 12.34565699 -1740.58190663 11.69929575 -1473.33544922 9.76318359 C-1472.38974894 9.75648705 -1471.44404865 9.7497905 -1470.46969078 9.74289103 C-1414.28146225 9.34502236 -1358.09321958 8.94916567 -1301.90497252 8.55392277 C-1280.63621709 8.40431168 -1259.36746277 8.25454379 -1238.09870864 8.10474783 C-1164.75725539 7.58820378 -1091.4157999 7.07197872 -1018.07433591 6.55696071 C-1012.39886465 6.51710631 -1006.7233934 6.47725017 -1001.04792214 6.4373943 C-998.7741852 6.42142711 -996.50044826 6.40545993 -994.22671132 6.38949275 C-983.97254785 6.31748336 -973.71838439 6.24547306 -963.46422094 6.17346098 C-961.18111508 6.15742747 -958.89800922 6.14139414 -956.61490335 6.12536099 C-882.82459438 5.60716699 -809.03429999 5.08693573 -735.24401501 4.56533725 C-681.76557814 4.18731742 -628.28713961 3.80954298 -574.80868721 3.43372536 C-573.70716191 3.42598433 -572.60563661 3.41824329 -571.47073175 3.41026769 C-547.28602143 3.24031411 -523.10131004 3.07051475 -498.91659763 2.90085898 C-490.26648598 2.84017662 -481.61637442 2.77948086 -472.96626292 2.71877772 C-470.81569819 2.7036859 -468.66513345 2.68859464 -466.51456871 2.67350397 C-432.52157826 2.43496459 -398.52859953 2.19480106 -364.5356267 1.95376435 C-330.38132343 1.71159369 -296.2270083 1.47117235 -262.07267634 1.23308115 C-257.32911649 1.2000134 -252.58555678 1.16692687 -247.84199715 1.13382912 C-246.91252991 1.12734457 -245.98306267 1.12086003 -245.02542975 1.11417898 C-231.36405134 1.01882295 -217.70268419 0.921962 -204.04132271 0.82421303 C-184.04595058 0.68122271 -164.05056407 0.5404638 -144.05514526 0.40414429 C-142.89835894 0.39625093 -142.89835894 0.39625093 -141.7182032 0.38819811 C-94.47877638 0.06631628 -47.24065153 -0.16165199 0 0 Z " fill="#C8DC6D" transform="translate(3004,1850)"/>
</svg>
