<svg width="25" height="25" viewBox="0 0 25 25" fill="none" xmlns="http://www.w3.org/2000/svg">
<path d="M10.4131 16.4132V9.2452C10.4132 9.15552 10.4375 9.06752 10.4833 8.99044C10.5292 8.91336 10.5949 8.85003 10.6737 8.80708C10.7524 8.76414 10.8412 8.74316 10.9309 8.74635C11.0205 8.74954 11.1076 8.77677 11.1831 8.8252L16.7591 12.4082C16.8297 12.4534 16.8878 12.5157 16.928 12.5893C16.9683 12.6628 16.9893 12.7453 16.9893 12.8292C16.9893 12.9131 16.9683 12.9956 16.928 13.0691C16.8878 13.1427 16.8297 13.205 16.7591 13.2502L11.1831 16.8342C11.1076 16.8826 11.0205 16.9099 10.9309 16.9131C10.8412 16.9162 10.7524 16.8953 10.6737 16.8523C10.5949 16.8094 10.5292 16.746 10.4833 16.669C10.4375 16.5919 10.4132 16.5039 10.4131 16.4142V16.4132Z" fill="white"/>
<path d="M1.91309 12.8292C1.91309 6.75419 6.83809 1.82919 12.9131 1.82919C18.9881 1.82919 23.9131 6.75419 23.9131 12.8292C23.9131 18.9042 18.9881 23.8292 12.9131 23.8292C6.83809 23.8292 1.91309 18.9042 1.91309 12.8292ZM12.9131 3.32919C10.3935 3.32919 7.97717 4.33008 6.19557 6.11168C4.41398 7.89327 3.41309 10.3096 3.41309 12.8292C3.41309 15.3488 4.41398 17.7651 6.19557 19.5467C7.97717 21.3283 10.3935 22.3292 12.9131 22.3292C15.4326 22.3292 17.849 21.3283 19.6306 19.5467C21.4122 17.7651 22.4131 15.3488 22.4131 12.8292C22.4131 10.3096 21.4122 7.89327 19.6306 6.11168C17.849 4.33008 15.4326 3.32919 12.9131 3.32919Z" fill="white"/>
</svg>
